<svg width="32" height="32" viewBox="0 0 32 32" fill="none" xmlns="http://www.w3.org/2000/svg">
<path d="M31 16C31 7.716 24.284 1 16 1C7.9305 1 1.3515 7.373 1.0155 15.36C1.0115 15.458 1.0105 15.5575 1.0085 15.656C1.006 15.771 1 15.885 1 16V16.0505C1 24.307 7.716 31 16 31C24.284 31 31 24.307 31 16.0505L30.999 16.026L31 16ZM18.995 29.6755C18.7325 29.533 18.4805 29.2995 18.378 28.9815C18.1925 28.4055 18.336 27.9585 18.549 27.4385C18.719 27.022 18.4905 26.541 18.6035 26.105C18.824 25.2565 19.09 24.337 19.008 23.4255C18.957 22.866 18.833 22.8405 18.419 22.5175C17.9825 22.175 17.9825 21.6905 17.6905 21.2575C17.426 20.864 18.138 19.369 17.9395 19.278C17.717 19.1755 17.211 19.3095 17.051 19.097C16.879 18.868 16.759 18.5975 16.5225 18.42C16.37 18.3055 15.6955 17.9225 15.5155 17.9495C14.609 18.085 13.627 17.201 13.0485 16.6245C12.65 16.229 12.484 15.7855 12.192 15.328C11.945 14.9405 11.571 14.907 11.3875 14.4265C11.195 13.9245 11.3095 13.2815 11.251 12.7535C11.1875 12.186 10.9055 12.005 10.553 11.571C9.799 10.6395 9.5215 9.2495 8.091 9.2495C7.3225 9.2495 7.377 10.9235 6.758 10.699C6.058 10.4455 4.975 11.6445 4.9905 11.483C5.0725 10.646 5.932 10.239 6.016 9.9895C6.2905 9.1705 4.7895 9.3665 4.982 8.6835C5.076 8.3475 6.031 8.103 5.8335 7.9025C5.774 7.8415 5.0435 7.329 5.0795 7.3035C5.215 7.2085 5.804 7.5095 5.676 7.1185C5.633 6.9885 5.5635 6.869 5.4975 6.7485C5.80108 6.40376 6.12147 6.07419 6.4575 5.761C6.9645 5.7195 7.4905 5.751 7.681 5.788C8.889 6.026 9.309 6.6375 10.517 6.185C11.098 5.968 13.2395 6.3445 13.5465 6.9535C13.7135 7.2865 14.3355 6.752 14.578 6.716C14.838 6.677 15.4255 7.0775 15.6045 6.832C16.076 6.1865 15.3025 5.9185 16.216 6.4155C16.8285 6.749 18.0255 5.2825 17.6465 7.006C17.373 8.2485 16.368 8.276 15.631 9.0855C14.9055 9.8825 17.0665 10.0995 17.122 10.8195C17.282 12.8925 18.3875 10.6505 18.0915 9.9135C17.519 8.486 18.743 8.878 19.236 9.785C19.5095 10.2885 19.7175 9.8645 20.0525 9.689C20.324 9.5475 20.3965 10.314 20.455 10.4475C20.6475 10.891 21.28 11.0235 21.173 11.5945C21.054 12.224 20.6065 12.035 20.169 12.1415C19.6805 12.26 20.248 12.671 20.177 12.821C20.1 12.985 19.511 13.053 19.354 13.146C18.892 13.418 19.1745 13.9485 18.813 14.2335C18.565 14.4295 18.315 14.302 18.267 14.669C18.2105 15.1015 17.4135 15.2405 17.517 15.654C17.5455 15.7675 17.775 16.6155 17.6305 16.6605C17.564 16.682 17.0385 15.923 16.895 15.847C16.611 15.6965 15.32 15.8195 15.154 16.674C15.0465 17.2265 15.9355 18.099 16.162 17.338C16.4425 16.4015 16.576 17.8835 16.5085 17.9415C16.6425 18.0585 17.4265 17.749 17.194 18.2915C17.0955 18.521 17.2905 19.1195 17.6385 18.935C17.784 18.858 18.159 19.09 18.2245 18.9655C18.3186 18.8221 18.4459 18.7034 18.5955 18.6195C18.946 18.4145 19.4705 18.607 19.8545 18.6295C20.089 18.643 22.011 19.6915 22.0215 19.902C22.0635 20.6895 23.5165 20.587 23.7395 20.8685C24.339 21.6315 24.1545 21.244 23.717 22.2215C23.4965 22.7135 23.6885 23.317 23.1545 23.6735C22.8975 23.8445 22.584 23.759 22.3555 24.001C22.1495 24.2195 22.2305 24.4805 22.1055 24.733C21.955 25.0335 19.9325 26.851 19.799 27.2905C19.7325 27.511 19.129 27.703 19.638 27.9145C19.934 28.0015 18.9825 28.901 19.44 29.2735C19.5515 29.364 19.6245 29.4405 19.6795 29.509C19.451 29.57 19.2245 29.6255 18.995 29.6755ZM17.797 2.1185C17.7775 2.191 17.807 2.2765 17.9325 2.36C18.2155 2.5475 17.8515 2.964 17.461 2.6955C17.0715 2.427 16.1955 2.816 16.256 3.0175C16.3155 3.219 16.586 3.299 17.004 3.1385C17.421 2.9775 17.593 3.1625 17.663 3.3535C17.711 3.483 17.663 3.555 17.6495 3.7295C17.637 3.904 17.1515 3.783 16.748 3.8105C16.3435 3.8375 15.913 3.7295 15.9255 3.501C15.939 3.273 15.495 2.8565 15.23 2.6825C14.9655 2.5085 15.346 2.1325 15.697 2.414C16.0465 2.696 16.0605 2.3605 16.4645 2.2535C16.694 2.1925 16.602 2.101 16.524 2.014C16.954 2.029 17.378 2.065 17.797 2.1185ZM19.5555 6.553C19.858 6.635 20.3835 7.0175 20.3835 7.1985C20.3835 7.38 20.145 7.607 20.0395 7.581C19.278 7.3955 18.636 6.644 18.2825 6.2325C17.6655 5.515 17.7045 6.13 16.727 5.8195C16.477 5.7395 16.0805 4.964 16.343 4.5815C16.6055 4.199 16.9085 4.1385 17.1505 4.24C17.3925 4.34 18.0995 3.9175 18.262 4.421C18.423 4.9245 18.8675 5.567 19.272 5.739C19.677 5.91 19.252 6.471 19.5555 6.553ZM19.798 8.8895C19.919 9.131 19.0705 8.6075 18.8685 8.366C18.6675 8.125 18.3635 7.5805 18.607 7.339C18.849 7.098 19.392 7.8415 19.6775 8.004C20.242 8.3265 19.677 8.6485 19.798 8.8895ZM15.501 5.232C15.5595 5.1515 15.6835 5.353 15.794 5.5545C15.9045 5.756 15.752 6.04 15.501 5.997C15.25 5.955 15.3605 5.429 15.501 5.232ZM15.501 3.206C15.501 3.206 15.7375 3.783 15.501 3.689C15.2645 3.595 15.253 3.3535 15.501 3.206ZM15.549 5.031C15.4815 4.8705 15.466 4.211 15.63 4.011C15.872 3.716 16.263 4.293 16 4.521C15.7375 4.7495 15.616 5.1925 15.549 5.031ZM12.5105 5.7385C12.071 5.707 12.0615 5.327 12.0005 5.1255C11.9395 4.924 11.5755 5.508 11.2075 5.1255C10.8395 4.743 11.2935 4.24 11.2125 3.9375C11.1315 3.6355 12.0805 3.9375 12.2225 3.9375C12.3645 3.9375 12.748 4.5615 12.8485 4.551C12.95 4.541 13.495 5.0445 13.495 4.843C13.495 4.642 13.578 4.299 13.96 4.259C14.546 4.1985 14.0205 4.9035 14 5.178C13.9805 5.4525 14.4455 5.93 14.616 6.1315C14.788 6.333 14.1825 6.4745 14.081 6.353C13.9805 6.232 13.7175 6.353 13.495 6.514C13.2735 6.675 12.667 6.2925 12.3845 6.1715C12.1015 6.051 12.95 5.7695 12.5105 5.7385ZM14.081 2.5615C14.4715 2.696 14.6935 2.8165 14.8855 2.5615C15.071 2.3155 15.2125 3.098 15.078 3.3125C14.943 3.528 14.6875 3.4745 14.6465 3.3125C14.6065 3.1525 13.6905 2.427 14.081 2.5615ZM14.6465 4.991C14.5125 4.816 14.499 4.615 14.6465 4.4675C14.795 4.32 14.747 4.1455 15.011 4.092C15.141 4.065 15.1585 4.266 15.1585 4.454C15.1585 4.642 15.3205 4.8835 15.1585 5.178C14.997 5.4725 14.7815 5.165 14.6465 4.991ZM15.749 2.0065C15.743 2.0435 15.7185 2.0655 15.657 2.0595C15.6147 2.05233 15.5745 2.03613 15.539 2.012C15.6095 2.0095 15.6785 2.0075 15.749 2.0065ZM12.6945 2.575C13.004 2.575 12.964 2.784 13.22 2.9345C13.476 3.0845 13.341 2.1585 13.516 2.5075C13.691 2.856 14.2105 3.3395 13.9605 3.433C13.7455 3.5145 12.8435 3.8625 12.7625 3.8025C12.6815 3.7425 12.574 3.4875 12.358 3.433C12.142 3.3795 11.9135 2.8695 11.765 2.883C11.7085 2.888 11.7035 2.791 11.7405 2.662C12.0002 2.5784 12.2623 2.50253 12.5265 2.4345C12.5555 2.5135 12.5995 2.575 12.6945 2.575ZM19.454 17.5875C19.1315 17.9205 18.576 17.3555 18.1925 17.3755C17.809 17.3955 17.6165 16.993 17.2835 17.0335C16.9495 17.073 17.3745 16.61 17.839 16.8525C18.3025 17.094 19.717 17.315 19.454 17.5875ZM25.919 6.1205C25.825 6.2405 25.718 6.3245 25.6155 6.413C25.313 6.675 24.7475 6.655 24.6665 6.836C24.5855 7.017 24.3835 7.5805 23.6765 7.583C22.9695 7.585 23.1715 8.6485 23.111 8.952C23.0505 9.2555 22.8895 9.6145 22.687 9.3525C22.485 9.091 22.404 9.191 21.779 8.426C21.154 7.661 21.394 7.2385 21.5965 7.017C21.7985 6.796 21.8795 6.272 21.5965 6.3525C21.3135 6.433 21.152 6.2515 21.2125 6.001C21.273 5.7505 21.576 5.5675 21.2125 5.3C20.849 5.033 21.0505 4.0775 20.768 3.2055C20.485 2.333 20.101 2.9505 19.475 2.984C18.849 3.0175 18.7475 2.5475 19.0305 2.3325C21.6418 2.90997 24.0326 4.22467 25.919 6.1205Z" fill="white"/>
</svg>
