<svg width="32" height="32" viewBox="0 0 32 32" fill="none" xmlns="http://www.w3.org/2000/svg">
<g clip-path="url(#clip0_2073_1567)">
<rect width="32" height="32" fill="#202931"/>
<path d="M16 0C7.16928 0 0 7.16928 0 16C0 24.8307 7.16928 32 16 32C24.8147 32 31.9715 24.8563 31.9974 16.0474C31.9991 16.0316 31.9999 16.0158 32 16C32 15.9858 31.9993 15.9716 31.9981 15.9574C31.975 7.14624 24.8166 0 16 0ZM15.6032 1.03616C16.0246 1.0048 16.1696 1.11392 15.2662 1.32384C14.0227 1.69024 15.927 2.09856 16.0906 1.38624C16.9066 1.35904 16.8621 1.32864 17.0698 1.14688C17.473 1.16288 17.6058 1.11488 17.6019 1.04576C21.5616 1.464 25.0589 3.41696 27.4931 6.29888C27.7747 6.98368 27.9699 7.67808 28.4813 8.20736C28.4915 8.2864 28.8858 8.87744 28.68 8.2576C28.6933 8.14078 28.692 8.02275 28.6762 7.90624C28.9159 8.28089 29.1388 8.66602 29.3443 9.06048C29.3315 9.13361 29.3097 9.20487 29.2794 9.27264C29.881 11.272 28.4163 7.78464 28.6275 9.25952C28.1402 8.36864 27.5734 7.51008 27.072 7.69184C26.5174 7.8672 28.1818 8.09632 27.6538 8.79424C28.6278 9.77024 29.1322 11.1677 28.745 12.5363C28.1517 13.2979 27.8669 13.7731 27.7475 14.6589C27.2522 14.4624 27.6349 12.9363 26.9795 14.3002C27.9434 15.2442 28.5786 17.3386 26.9914 18.0486C27.0576 17.4426 25.577 16.3053 25.7949 17.8525C26.2778 18.6547 27.2669 19.4845 27.12 20.7267C26.8362 21.2963 28.5686 21.1002 27.3805 21.6486C27.2102 21.8515 27.2413 22.4694 27.6301 22.1306C28.08 22.1914 28.5139 21.6051 29.0406 21.8118C28.3306 22.3898 30.3715 21.5693 29.6106 20.9805C29.6563 20.1059 29.9744 18.7322 29.4131 20.3043C29.6147 21.5818 28.1082 21.2675 27.9069 20.9693C28.168 20.5398 27.5392 18.2426 28.0563 19.4387C29.0045 19.6093 29.473 17.2077 29.7062 16.1962C29.9926 15.4211 29.1827 13.7267 29.6902 13.4787C29.9955 14.6403 30.5958 15.0506 30.7206 16.3501C30.8947 17.1501 30.6301 17.4909 30.3245 17.3245C29.9091 17.8778 29.2938 19.8621 30.4 18.7133C31.104 17.4646 30.1414 19.4726 30.4074 19.2467C30.7155 19.6742 30.7248 17.9923 30.9082 17.9651C30.8185 18.655 30.6809 19.3379 30.4963 20.0086C30.4896 20.0182 30.4845 20.023 30.4774 20.0333C30.1443 19.1037 30.383 21.2534 29.8326 20.9626C29.7539 21.3747 29.9363 21.303 30.1338 21.1568C30.0064 21.5026 29.8662 21.8435 29.7136 22.1789C29.0758 22.6102 28.0954 22.5738 27.4051 22.8038C26.6438 22.8458 26.1091 21.7968 25.6051 21.8845C25.0752 21.1258 25.2845 20.4038 24.5149 19.6742C24.8675 18.5341 26.7453 21.1955 25.9286 19.3149C24.9178 18.5072 25.3347 17.0739 24.9763 15.9795C24.2883 16.4461 23.881 16.1629 23.9405 15.3325C23.4909 14.4944 22.7274 13.8458 21.895 14.703C21.3898 15.5894 20.4614 16.2541 19.8624 16.9558C19.5414 18.1258 20.599 18.9261 20.3843 20.0051C19.3389 20.8947 19.8781 18.224 18.9424 19.4982C17.9517 18.9021 17.8224 17.3814 17.2701 16.3901C16.8902 15.6838 17.4422 14.6346 16.3856 15.0365C15.4147 14.9443 16.0765 13.2832 15.5037 13.9306C14.639 13.0899 12.8259 13.648 11.9869 13.2262C12.7696 13.7062 13.3523 14.6602 12.3594 15.2733C11.6851 16.1917 10.4506 16.5725 9.38112 16.8787C8.92192 17.233 6.61056 17.4864 8.30112 17.8845C8.9872 17.8586 9.32192 17.6634 9.91936 17.7606C10.0941 18.7194 9.21856 19.5139 8.77568 20.3613C8.0896 21.0448 7.19648 21.4397 6.69248 22.24C6.45536 23.0512 6.95008 24.0224 7.26112 24.8182C8.11456 26.0106 5.77184 25.8208 6.81504 26.8413C7.0272 27.3507 6.6064 27.2509 6.71072 27.8275C3.2096 25.0749 0.96 20.8032 0.96 16C0.96 12.9312 1.87904 10.08 3.4544 7.70176C3.6816 7.9808 4.22976 8.336 3.65824 8.5056C3.23296 9.01248 3.73888 10.849 4.37248 9.5456C4.95104 10.0483 5.77344 10.7117 6.64 10.3187C7.18848 9.64416 7.40736 8.68448 6.74176 9.6C6.25056 9.61472 6.93408 8.72896 6.08064 9.0688C5.1904 9.52736 4.66304 8.9024 5.12512 7.91424C5.10976 6.90016 3.37952 9.72512 4.1344 7.86048C5.05056 7.75808 4.7424 6.08832 4.12064 7.49952C3.47328 7.63712 5.06208 6.31968 4.76704 6.36128C4.70144 6.37056 4.53568 6.45152 4.24 6.62496C6.1264 4.26112 8.70944 2.47968 11.6813 1.59136C12.2378 1.61248 12.7446 1.8064 12.9741 2.04256C13.3526 1.67936 15.4378 2.0896 14.2787 1.59136C14.4829 1.23968 15.1814 1.06784 15.6032 1.03616ZM7.83008 6.3664C6.9744 6.73984 6.45056 7.82432 7.83008 7.34688C8.28704 7.3952 8.67584 7.99552 9.17088 7.63552C9.26048 6.71616 7.79456 6.88192 7.83008 6.3664ZM11.8336 6.46816C11.3235 6.44992 10.1469 7.44 11.1181 8.16192C10.071 8.79552 11.0611 9.49696 11.8525 9.2144C11.9414 8.34496 10.9293 6.98688 12.0458 6.6576C12.0336 6.53024 11.9514 6.47232 11.8336 6.46816ZM3.86944 7.10688C3.87232 7.1568 3.84 7.21504 3.73952 7.28992C3.78272 7.22912 3.82528 7.16704 3.86944 7.10688ZM10.1712 11.695C9.22304 11.6758 10.7862 12.9216 10.6819 13.3805C10.8832 13.4298 11.079 13.3539 11.2637 13.2877C11.9584 12.7686 10.032 12.5318 10.1712 11.695ZM6.16576 11.9222C6.06528 11.9437 6.0064 12.1574 6.14016 12.6118C6.38912 13.8643 6.25504 15.2496 6.98624 16.2464C7.07104 16.4058 7.33568 16.9046 7.3168 16.3482C7.1168 15.1261 6.65664 13.9786 6.43264 12.6957C6.4912 12.1869 6.29472 11.8954 6.16576 11.9222ZM29.9744 15.9734C29.9098 15.993 29.8458 16.1942 29.8112 16.6854C29.4643 16.848 29.6384 18.2003 29.977 17.6352C30.3062 17.177 30.1638 16.0512 30.0019 15.976C29.9934 15.9717 29.9836 15.9708 29.9744 15.9734ZM28.2013 24.7936C27.833 25.3045 27.433 25.7919 27.0038 26.2528C27.3526 25.7274 27.727 25.2227 28.2013 24.7936ZM9.512 25.2406C10.0304 25.1786 10.3053 26.8707 9.87872 27.4637C10.0013 28.1898 9.3136 28.4307 8.90752 27.8611C8.35616 27.1674 7.86112 25.7139 9.11936 25.5994C9.2592 25.3632 9.39232 25.255 9.512 25.2406Z" fill="white"/>
</g>
<defs>
<clipPath id="clip0_2073_1567">
<rect width="32" height="32" fill="white"/>
</clipPath>
</defs>
</svg>
