<svg width="24" height="24" viewBox="0 0 24 24" fill="none" xmlns="http://www.w3.org/2000/svg">
<g clip-path="url(#clip0_2837_15304)">
<path fill-rule="evenodd" clip-rule="evenodd" d="M14.2396 17.2484V17.6451C14.2396 18.1693 13.8152 18.5924 13.2922 18.5924C12.7693 18.5924 12.3448 18.1693 12.3448 17.6451V17.3293H11.5781V17.6451C11.5781 18.1693 11.1537 18.5924 10.6307 18.5924C10.1078 18.5924 9.68337 18.1693 9.68337 17.6451V17.3293H8.71832C8.19537 17.3293 7.77095 16.9061 7.77095 16.3819C7.77095 15.9322 8.09053 15.5735 8.51116 15.4762V8.53389C8.09179 8.43663 7.77347 8.07789 7.77347 7.62947C7.77347 7.10653 8.1979 6.68211 8.72084 6.68211H9.68337V6.35368C9.68337 5.82947 10.1078 5.40632 10.6307 5.40632C11.1537 5.40632 11.5781 5.82947 11.5781 6.35368V6.68211H12.3448V6.35368C12.3448 5.82947 12.7693 5.40632 13.2922 5.40632C13.8152 5.40632 14.2396 5.82947 14.2396 6.35368V6.86147C15.3638 7.26442 16.1747 8.328 16.1747 9.58737C16.1747 10.2379 15.9486 10.8341 15.5823 11.3204C15.6909 11.4063 15.8034 11.4846 15.9019 11.5844C16.536 12.2198 16.8859 13.0636 16.8846 13.9579C16.8846 15.5697 15.7491 16.9175 14.2396 17.2484ZM12 0C5.38358 0 0 5.38232 0 12C0 18.6164 5.38358 24 12 24C18.6164 24 24 18.6164 24 12C24 5.38232 18.6164 0 12 0Z" fill="white"/>
<path fill-rule="evenodd" clip-rule="evenodd" d="M13.523 12.4919H10.4055V15.435H13.5217C14.3314 15.435 14.9895 14.7719 14.9895 13.9571C14.9908 13.5681 14.8379 13.2005 14.56 12.9226C14.2834 12.6447 13.9146 12.4919 13.523 12.4919Z" fill="white"/>
<path fill-rule="evenodd" clip-rule="evenodd" d="M13.2628 8.5766H10.4055V10.5977H13.2779C13.8312 10.5913 14.2796 10.1379 14.2796 9.58714C14.2796 9.03009 13.8236 8.5766 13.2628 8.5766Z" fill="white"/>
</g>
<defs>
<clipPath id="clip0_2837_15304">
<rect width="24" height="24" fill="white"/>
</clipPath>
</defs>
</svg>
