<svg width="20" height="24" viewBox="0 0 20 24" fill="none" xmlns="http://www.w3.org/2000/svg">
<path d="M0 0H11.6667C13.8889 0 15.5556 0.5625 16.7901 1.5C18.1481 2.625 18.8889 4.25 18.8889 6.25C18.8889 8.5625 17.963 10 16.1111 10.875V11C18.5803 11.8125 20 14.0625 20 16.75C20 19.3125 19.0123 21.3125 17.4074 22.5625C16.0494 23.5625 14.321 24 11.9753 24H0V0ZM10.4938 9.375C11.7284 9.375 12.6543 8.6875 12.6543 7.25C12.6543 5.875 11.7284 5.1875 10.4321 5.1875H6.41975V9.3125H10.4938V9.375ZM11.0494 18.6875C12.4691 18.6875 13.5185 17.8125 13.5185 16.25C13.5185 14.5625 12.4074 13.8125 11.0494 13.8125H6.48148V18.75H11.0494V18.6875Z" fill="white"/>
</svg>
