<svg width="25" height="24" viewBox="0 0 25 24" fill="none" xmlns="http://www.w3.org/2000/svg">
<g clip-path="url(#clip0_2837_15237)">
<path d="M18.3997 23.9154C16.7622 24.2333 15.0299 23.612 13.4439 22.7715C8.71112 20.2606 5.0418 16.577 2.10607 12.1372C0.772129 10.1186 -0.511673 7.64737 0.206094 5.17221C0.816991 3.0678 3.19723 1.50828 5.15394 0.787905C7.29273 0.000231964 9.75215 -0.175254 12.0005 0.165154C13.085 0.329371 14.1243 0.608581 15.1075 0.986623C15.3351 1.07412 15.3128 1.40239 15.0817 1.48012C13.8668 1.88879 12.5211 2.60581 11.2373 3.82704C10.8521 4.19348 10.8368 4.80281 11.2032 5.18802C11.5697 5.57324 12.179 5.58848 12.5642 5.22205C14.2566 3.61219 15.694 2.61598 17.9493 2.5939C18.0591 2.59283 18.1663 2.62861 18.2536 2.69525C18.7959 3.10902 19.8418 3.90614 20.317 4.38395C20.4616 4.52944 20.3787 4.77596 20.1781 4.81919C18.6127 5.15657 16.5621 6.01123 14.7317 8.0089C14.3724 8.40089 14.3991 9.00983 14.7911 9.36901C15.1831 9.72813 15.7921 9.70156 16.1512 9.30958C18.2953 6.96969 20.7681 6.56511 21.8385 6.54673C22.0008 6.54395 22.149 6.62921 22.2369 6.76548C22.776 7.60043 23.2247 8.48519 23.5715 9.40339C23.635 9.57154 23.5062 9.74815 23.3266 9.7529C21.9558 9.7891 19.7015 10.2457 17.6344 12.2118C17.2492 12.5782 17.2339 13.1875 17.6004 13.5727C17.9668 13.958 18.5762 13.9732 18.9615 13.6067C20.5536 12.0923 22.0436 12.0331 23.9584 11.7326C24.097 11.7108 24.2287 11.803 24.251 11.9415C24.6989 14.7191 24.2214 17.6518 22.5532 20.3491C21.6125 21.8703 20.2799 23.5499 18.3997 23.9154Z" fill="white" fill-opacity="0.5"/>
</g>
<defs>
<clipPath id="clip0_2837_15237">
<rect width="24.41" height="24" fill="white"/>
</clipPath>
</defs>
</svg>
