<svg width="32" height="32" viewBox="0 0 32 32" fill="none" xmlns="http://www.w3.org/2000/svg">
<rect width="32" height="32" fill="#202931"/>
<path d="M21.3656 15.7815C21.1531 15.689 21.1436 15.499 21.1651 15.3705L21.6721 13.5865L19.9641 13.9415C19.9056 13.9495 19.7421 13.937 19.6576 13.6015L19.5071 12.9945L18.3226 14.3535C18.3226 14.3535 17.5556 15.185 17.7961 13.9155L18.3106 11.203L17.3591 11.675C17.3051 11.696 17.1176 11.723 16.8691 11.2525L16.0001 9.60849L15.1316 11.2525C14.8831 11.7225 14.6956 11.696 14.6416 11.675L13.6911 11.203L14.2046 13.9155C14.4451 15.185 13.6786 14.3535 13.6786 14.3535L12.4941 12.9945L12.3436 13.6015C12.2591 13.937 12.0966 13.949 12.0366 13.9415L10.3286 13.5865L10.8351 15.3705C10.8571 15.499 10.8471 15.6895 10.6346 15.7815L10.1001 16.015C10.1001 16.015 12.0596 17.5795 12.7016 18.1125C12.8266 18.216 13.1291 18.519 13.0251 18.843L12.7961 19.553L15.4776 19.146C15.6151 19.1345 15.9091 19.158 15.8906 19.5925L15.7656 22.392H16.2346L16.1096 19.5925C16.0911 19.1585 16.3861 19.1345 16.5226 19.146L19.2041 19.553L18.9751 18.843C18.8711 18.519 19.1731 18.216 19.2986 18.1125C19.9401 17.5795 21.8996 16.015 21.8996 16.015L21.3656 15.7815Z" fill="white"/>
<path d="M16 1C7.716 1 1 7.716 1 16C1 24.284 7.716 31 16 31C24.284 31 31 24.284 31 16C31 7.716 24.284 1 16 1ZM8.1335 27.574V4.426C10.377 2.896 13.0855 2 16 2C18.9145 2 21.623 2.896 23.8665 4.426V27.5745C21.623 29.104 18.9145 30 16 30C13.0855 30 10.377 29.104 8.1335 27.574Z" fill="white"/>
</svg>
