<svg width="32" height="32" viewBox="0 0 32 32" fill="none" xmlns="http://www.w3.org/2000/svg">
<rect width="32" height="32" fill="#202931"/>
<path d="M16 1C7.716 1 1 7.716 1 16C1 24.284 7.716 31 16 31C24.284 31 31 24.284 31 16C31 7.716 24.284 1 16 1ZM17.5895 4.6915L18.302 5.5585L19.387 5.144L18.7365 6.0875L19.4415 6.9475L18.3065 6.691L17.6355 7.641L17.6085 6.5215L16.4915 6.246L17.5935 5.823L17.5895 4.6915ZM15.033 16.9835L11.083 14.216L7.1325 16.9835L8.624 12.4815L4.691 9.6085H9.6075L11.0825 5.1835L12.602 9.6085H17.4745L13.5415 12.4815L15.033 16.9835ZM19.3865 18.989L18.2955 18.5825L17.5895 19.442L17.5935 18.31L16.4915 17.886L17.6085 17.6115L17.6365 16.492L18.3065 17.4415L19.4415 17.1855L18.73 18.0525L19.3865 18.989ZM20.301 14.8765L20.0605 16L19.583 14.928L18.458 15.0155L19.299 14.263L18.8475 13.192L19.825 13.7935L20.6895 13.05L20.448 14.184L21.409 14.7775L20.301 14.8765ZM20.2765 10.4785L19.9165 11.575L19.5785 10.4585L18.458 10.42L19.3685 9.7605L19.0475 8.6255L19.9545 9.343L20.852 8.696L20.508 9.781L21.4075 10.4935L20.2765 10.4785Z" fill="white"/>
</svg>
