<svg width="16" height="18" viewBox="0 0 16 18" fill="none" xmlns="http://www.w3.org/2000/svg">
<path d="M0.802287 10.1317L12.5856 17.19C12.8376 17.3355 13.1234 17.4125 13.4144 17.4134C13.7054 17.4142 13.9916 17.3388 14.2444 17.1947C14.4972 17.0506 14.7079 16.8427 14.8555 16.5919C15.0031 16.3411 15.0824 16.056 15.0856 15.765L15.0856 1.64835C15.0824 1.35735 15.0031 1.07226 14.8555 0.821443C14.7079 0.570624 14.4972 0.362821 14.2444 0.218708C13.9916 0.0745951 13.7054 -0.000804896 13.4144 9.95191e-06C13.1234 0.0008248 12.8376 0.0778259 12.5856 0.223353L0.802287 7.28169C0.557375 7.43024 0.354886 7.63942 0.214356 7.88902C0.0738266 8.13863 0 8.42024 0 8.70669C0 8.99313 0.0738266 9.27474 0.214356 9.52435C0.354886 9.77395 0.557375 9.98313 0.802287 10.1317Z" fill="currentColor"/>
</svg>
