<svg width="30" height="24" viewBox="0 0 30 24" fill="none" xmlns="http://www.w3.org/2000/svg">
<g opacity="0.5" clip-path="url(#clip0_3362_1693)">
<path d="M3.95142 5.25249C2.75267 6.33875 2.31638 8.80006 4.47736 10.2389L13.0985 16.1595L8.91837 6.57331C8.04244 4.3112 5.64614 3.81791 3.95142 5.25249Z" fill="white"/>
<path d="M11.3726 0.591722C9.97123 0.620303 7.86693 2.29073 8.80339 4.84152L13.1268 15.0478L14.646 4.31275C14.9975 1.64532 12.9809 0.413979 11.3726 0.591722Z" fill="white"/>
<path d="M15.3206 3.90331H16.1381C16.1381 3.90331 16.5747 3.90331 16.6341 4.10946C16.3124 4.37244 15.4368 4.40539 15.553 5.81006L16.9273 15.0464L21.2211 4.81328C22.0994 2.52842 20.2559 0.620216 18.6206 0.561897C18.5442 0.556412 18.4676 0.551956 18.3882 0.551956C16.9204 0.551913 15.2384 1.6197 15.3206 3.90331Z" fill="white"/>
<path d="M21.0483 6.66025L16.987 16.1314L25.6056 10.1796C27.5923 8.76903 27.2719 6.51392 26.1598 5.39921C25.6936 4.87455 24.8375 4.46928 23.9307 4.46928C22.8594 4.46906 21.7129 5.03786 21.0483 6.66025Z" fill="white"/>
<path d="M24.6406 11.5272L16.5467 17.1863H26.5127C28.5573 17.1863 29.8712 15.0761 29.2871 13.1396C28.8959 11.9224 27.7385 10.9669 26.395 10.9655C25.8295 10.9657 25.2298 11.1362 24.6406 11.5272Z" fill="white"/>
<path d="M3.71919 17.1863H13.5381L5.44212 11.5272C3.57176 10.3243 1.46869 11.0281 0.709454 13.0243C0.065881 15.3094 1.67276 17.1863 3.71919 17.1863Z" fill="white"/>
<path d="M0.0316777 21.2819C0.0316777 22.2457 0.818786 24 3.82424 24C6.59519 24 7.47036 22.7273 7.47036 22.1437H5.32513C5.32513 22.1437 5.22324 22.9147 4.01311 22.9147C2.8022 22.9147 2.47472 21.903 2.47472 21.3179C2.47472 20.7351 2.8022 19.778 4.01311 19.778C5.22324 19.778 5.32513 20.4493 5.32513 20.4493H7.47036C7.47036 19.865 6.82824 18.6102 3.82424 18.6102C0.818786 18.6102 0.0316777 20.4786 0.0316777 21.2819Z" fill="white"/>
<path d="M22.5296 21.2819C22.5296 22.2457 23.3175 24 26.3222 24C29.0929 24 29.9684 22.7273 29.9684 22.1437H27.8246C27.8246 22.1437 27.7223 22.9147 26.5118 22.9147C25.3008 22.9147 24.973 21.903 24.973 21.3179C24.973 20.7351 25.3008 19.778 26.5118 19.778C27.7223 19.778 27.8246 20.4493 27.8246 20.4493H29.9684C29.9684 19.865 29.3269 18.6102 26.3222 18.6102C23.3176 18.6102 22.5296 20.4786 22.5296 21.2819Z" fill="white"/>
<path d="M13.3333 18.7002V21.9629L10.8367 18.7002H8.02823V23.868H9.9536V20.5678L12.4065 23.868H15.2588V18.7002H13.3333Z" fill="white"/>
<path d="M19.503 22.6334V22.6402H17.8988V21.6913H19.503V21.6944C19.8456 21.6944 20.1224 21.9051 20.1224 22.1646C20.1224 22.4235 19.8456 22.6334 19.503 22.6334ZM17.9135 19.7053H19.4593V19.7075C19.7212 19.7075 19.9336 19.88 19.9336 20.0922C19.9336 20.3053 19.7212 20.4763 19.4593 20.4763V20.4786H17.9135V19.7053ZM21.0787 21.1206C21.4292 21.1206 22.1621 20.7133 22.1621 19.9243C22.1621 18.8007 20.0719 18.7002 19.7512 18.7002H15.9002V23.868H19.7512C21.6035 23.868 22.3475 23.2823 22.3475 22.3042C22.3475 21.3261 21.0787 21.1206 21.0787 21.1206Z" fill="white"/>
</g>
<defs>
<clipPath id="clip0_3362_1693">
<rect width="30" height="24" fill="white"/>
</clipPath>
</defs>
</svg>
