<svg width="32" height="32" viewBox="0 0 32 32" fill="none" xmlns="http://www.w3.org/2000/svg">
<path fill-rule="evenodd" clip-rule="evenodd" d="M22.748 4H9.25196C6.17196 4 3.66663 6.51333 3.66663 9.60267V18.8546C3.66663 21.9439 6.17196 24.4586 9.25196 24.4586H10.6773C11.348 24.4586 12.0026 24.7306 12.4746 25.2053L14.3707 27.1066C14.8067 27.5439 15.3853 27.7853 16 27.7853C16.616 27.7853 17.1947 27.5439 17.6307 27.1079L19.5253 25.2053C19.9987 24.7306 20.6547 24.4586 21.324 24.4586H22.748C25.828 24.4586 28.3333 21.9439 28.3333 18.8546V9.60267C28.3333 6.51333 25.828 4 22.748 4Z" fill="#98BCFF"/>
</svg>
