<svg width="32" height="32" viewBox="0 0 32 32" fill="none" xmlns="http://www.w3.org/2000/svg">
<path d="M10.6667 4H6.66667C5.19391 4 4 5.19391 4 6.66667V13.3333C4 14.8061 5.19391 16 6.66667 16H10.6667C12.1394 16 13.3333 14.8061 13.3333 13.3333V6.66667C13.3333 5.19391 12.1394 4 10.6667 4Z" stroke="white" stroke-width="1.5" stroke-linecap="round" stroke-linejoin="round"/>
<path d="M24 4H20C18.5273 4 17.3334 5.19391 17.3334 6.66667V9.33333C17.3334 10.8061 18.5273 12 20 12H24C25.4728 12 26.6667 10.8061 26.6667 9.33333V6.66667C26.6667 5.19391 25.4728 4 24 4Z" stroke="white" stroke-width="1.5" stroke-linecap="round" stroke-linejoin="round"/>
<path d="M10.6667 20H6.66667C5.19391 20 4 21.1939 4 22.6667V25.3333C4 26.8061 5.19391 28 6.66667 28H10.6667C12.1394 28 13.3333 26.8061 13.3333 25.3333V22.6667C13.3333 21.1939 12.1394 20 10.6667 20Z" stroke="white" stroke-width="1.5" stroke-linecap="round" stroke-linejoin="round"/>
<path d="M24 16H20C18.5273 16 17.3334 17.1939 17.3334 18.6667V25.3333C17.3334 26.8061 18.5273 28 20 28H24C25.4728 28 26.6667 26.8061 26.6667 25.3333V18.6667C26.6667 17.1939 25.4728 16 24 16Z" stroke="white" stroke-width="1.5" stroke-linecap="round" stroke-linejoin="round"/>
</svg>
