<svg width="21" height="24" viewBox="0 0 21 24" fill="none" xmlns="http://www.w3.org/2000/svg">
<g clip-path="url(#clip0_2837_15235)">
<path fill-rule="evenodd" clip-rule="evenodd" d="M20.1938 9.60702C19.8693 8.97314 19.2255 8.5792 18.5134 8.5792H12.2285V1.89976C12.2285 1.06263 11.716 0.354277 10.9231 0.0966957C10.1264 -0.162148 9.30454 0.109322 8.81468 0.783579L0.36084 12.4253C-0.0583183 13.0048 -0.116395 13.7586 0.208074 14.395C0.532543 15.0276 1.17643 15.4215 1.8885 15.4215H8.17206V22.1022C8.17206 22.9381 8.68464 23.6452 9.47751 23.9028C9.67699 23.9684 9.87899 24 10.0772 24C10.6655 24 11.2223 23.7222 11.5884 23.2172L20.0411 11.5755C20.4602 10.9959 20.5183 10.2421 20.1938 9.60702Z" fill="white" fill-opacity="0.5"/>
</g>
<defs>
<clipPath id="clip0_2837_15235">
<rect width="20.4019" height="24" fill="white"/>
</clipPath>
</defs>
</svg>
