<svg width="32" height="32" viewBox="0 0 32 32" fill="none" xmlns="http://www.w3.org/2000/svg">
<rect width="32" height="32" fill="#202931"/>
<path d="M16 1C7.716 1 1 7.716 1 16C1 24.284 7.716 31 16 31C24.284 31 31 24.284 31 16C31 7.716 24.284 1 16 1ZM14.508 23.859H15.6475L16 22.774L16.3525 23.859H17.492L16.57 24.5295L16.9215 25.6135L16 24.9435L15.077 25.6135L15.4295 24.5295L14.508 23.859ZM12.782 24.263L11.86 23.5925L10.937 24.263L11.2895 23.179L10.3675 22.5085H11.507L11.8595 21.4235L12.212 22.5085H13.3515L12.4285 23.179L12.782 24.263ZM9.931 21.412L9.008 20.7415L8.086 21.412L8.438 20.328L7.515 19.6575H8.655L9.0075 18.5725L9.3595 19.6575H10.4995L9.5775 20.328L9.931 21.412ZM6.1665 15.5055H7.3065L7.659 14.4215L8.011 15.5055H9.151L8.229 16.176L8.5815 17.26L7.6585 16.59L6.7365 17.26L7.0875 16.176L6.1665 15.5055ZM9.931 13.1085L9.008 12.4385L8.086 13.1085L8.438 12.0245L7.515 11.354H8.655L9.0075 10.269L9.3595 11.354H10.4995L9.5775 12.0245L9.931 13.1085ZM12.782 10.2575L11.86 9.5875L10.937 10.2575L11.2895 9.1735L10.3675 8.503H11.507L11.8595 7.418L12.212 8.503H13.3515L12.4295 9.1735L12.782 10.2575ZM16.923 8.907L16 8.2375L15.078 8.9075L15.4305 7.8235L14.5075 7.153H15.648L16 6.069L16.3525 7.153H17.492L16.57 7.8235L16.923 8.907ZM23.9135 13.1085L22.9905 12.4385L22.0685 13.1085L22.421 12.0245L21.498 11.354H22.638L22.99 10.269L23.3425 11.354H24.4825L23.5605 12.0245L23.9135 13.1085ZM23.9135 21.412L22.9905 20.7415L22.0685 21.412L22.421 20.328L21.498 19.6575H22.638L22.99 18.5725L23.3425 19.6575H24.4825L23.5605 20.328L23.9135 21.412ZM20.71 9.1735L21.0615 10.2575L20.1395 9.5875L19.2165 10.2575L19.569 9.1735L18.647 8.503H19.7865L20.139 7.418L20.4915 8.503H21.631L20.71 9.1735ZM19.787 22.509L20.1395 21.424L20.492 22.509H21.6315L20.7095 23.1795L21.062 24.2635L20.139 23.593L19.216 24.2635L19.5685 23.1795L18.6465 22.509H19.787ZM25.2625 17.26L24.3405 16.59L23.4175 17.26L23.77 16.176L22.848 15.5055H23.988L24.34 14.4215L24.6915 15.5055H25.8325L24.9095 16.176L25.2625 17.26Z" fill="white"/>
</svg>
