<svg width="32" height="32" viewBox="0 0 32 32" fill="none" xmlns="http://www.w3.org/2000/svg">
<rect width="32" height="32" fill="#202931"/>
<path d="M16 1C7.716 1 1 7.716 1 16L1.0005 16.0265L1 16.053C1 24.308 7.6785 31 15.9175 31L15.9495 30.999L16 31C24.284 31 31 24.284 31 16C31 7.716 24.284 1 16 1ZM30 16C30 17.197 29.849 18.3585 29.567 19.467C29.4365 19.377 29.0915 19.749 29.0065 19.256C28.9 18.644 28.21 18.219 27.8385 18.5115C27.467 18.804 26.4055 19.6545 26.353 20.1865C26.2995 20.718 25.848 21.356 25.6365 20.905C25.4235 20.453 24.7875 19.0435 24.8135 18.6715C24.8395 18.2995 24.5205 18.8045 24.0445 18.06C23.5665 17.3155 22.744 17.953 22.0805 17.581C21.417 17.2085 20.674 16.7035 20.302 16.5445C19.9315 16.3845 20.9655 18.033 21.0985 17.8205C21.232 17.608 21.762 17.98 21.9215 17.98C22.081 17.98 22.505 18.352 22.24 18.698C21.975 19.044 19.6135 20.481 19.3745 20.107C19.1345 19.733 17.7295 16.8365 17.49 17.014C17.251 17.1915 18.9765 20.213 19.2685 20.399C19.5595 20.5855 20.436 20.426 20.86 20.24C21.285 20.054 19.9845 22.314 19.428 22.58C18.871 22.8455 18.42 23.67 18.658 24.042C18.897 24.414 18.9235 25.8235 18.42 26.01C17.915 26.1955 17.7295 26.488 17.8885 26.834C18.047 27.179 17.5175 27.7635 17.2785 28.136C17.039 28.508 16.111 29.279 16.031 29.492C15.952 29.705 14.811 29.6515 14.359 29.6515C13.9085 29.6515 14.253 29.093 14.1995 28.615C14.1475 28.136 13.7495 27.684 13.7495 27.445C13.7495 27.2055 13.616 26.647 13.431 26.3815C13.2455 26.115 13.1915 25.61 13.3775 25.318C13.564 25.025 13.696 24.175 13.3255 23.8025C12.9535 23.4305 12.5285 22.792 12.821 22.287C13.113 21.782 12.5025 21.8355 11.9985 21.5955C11.494 21.356 10.459 21.6755 9.9285 21.7555C9.3975 21.835 8.8675 21.6225 8.708 21.356C8.549 21.0905 8.204 20.426 7.8505 20.266C7.498 20.107 7.7 19.4155 7.912 19.15C8.125 18.8845 7.7 18.379 7.912 18.1655C8.125 17.953 8.257 17.1825 8.6815 17.014C9.1065 16.846 9.0265 16.7305 9.0395 16.3315C9.053 15.9325 9.517 15.9325 9.596 15.72C9.676 15.507 9.9145 15.401 10.3935 15.401C10.871 15.401 11.6795 15.1215 12.0645 15.0285C12.4495 14.9355 13.113 14.8025 13.0595 15.175C13.0065 15.547 13.02 15.972 13.2715 15.972C13.524 15.972 13.869 16.1185 14.267 16.3665C14.665 16.614 14.678 16.4115 14.7315 16.132C14.785 15.8525 15.3415 15.959 15.9175 16.225C16.4935 16.491 17.279 16.3045 17.53 16.2785C17.7825 16.251 17.889 15.494 17.8225 15.2415C17.7555 14.989 17.358 15.361 17.106 15.2015C16.854 15.0425 16.5085 15.2415 16.257 15.015C16.0045 14.7895 15.9645 14.2575 16.257 14.2445C16.5485 14.231 16.695 14.138 16.867 13.939C17.04 13.7395 17.69 13.62 17.942 13.819C18.1935 14.0185 18.566 14.1515 18.7905 13.9255C19.016 13.7 18.3405 13.2615 18.1935 13.1415C18.0475 13.022 18.167 12.6365 18.0215 12.6365C17.875 12.6365 17.7555 12.7025 17.8355 12.889C17.915 13.075 17.411 13.407 17.3305 13.2215C17.2515 13.035 17.119 12.6765 16.92 12.6765C16.7215 12.6765 16.456 13.5805 16.4425 13.7265C16.429 13.873 16.084 14.112 15.806 14.112C15.528 14.112 15.528 14.4315 15.6735 14.578C15.8195 14.724 15.713 15.309 15.448 15.3425C15.1825 15.3765 15.0895 15.2825 15.05 15.056C15.0105 14.8305 14.745 14.857 14.7315 14.3915C14.718 13.926 14.426 13.7005 14.2405 13.4875C14.055 13.2745 13.577 12.65 13.3915 12.9295C13.206 13.209 14.055 13.807 14.28 13.966C14.5065 14.1255 14.4665 14.471 14.347 14.551C14.2275 14.631 14.002 15.2825 13.8695 15.335C13.736 15.388 13.6095 15.137 13.6095 15.137C13.4105 15.0575 13.8875 14.818 13.9675 14.6985C14.0465 14.579 13.132 13.7415 12.967 13.502C12.802 13.2625 12.097 13.701 11.779 13.542C11.4605 13.383 10.9825 14.14 10.9435 14.5785C10.903 15.0175 10.3855 15.1365 9.908 15.1365C9.431 15.1365 9.112 14.778 9.272 14.419C9.431 14.06 9.192 13.462 9.471 13.422C9.7495 13.3825 10.5445 13.422 10.704 12.9835C10.863 12.545 9.9475 12.146 10.3065 12.0665C10.664 11.9865 11.222 11.429 11.62 11.1095C12.017 10.7905 12.057 10.392 12.415 10.364C12.774 10.3365 12.336 9.6735 12.6545 9.4745C12.9735 9.275 13.0525 10.1925 13.2915 10.1925C13.5305 10.1925 14.007 10.1125 14.4055 10.312C14.804 10.5115 14.923 10.1125 15.0825 9.5935C15.2415 9.0755 15.6395 8.796 16.435 8.3975C17.231 7.9985 15.5205 8.517 15.2015 8.118C14.883 7.719 15.321 6.8415 15.5205 6.222C15.7195 5.602 14.8835 6.8415 14.4455 7.48C14.007 8.118 14.565 8.397 14.5245 8.8355C14.485 9.2745 13.7695 9.7925 13.7695 9.7925C13.451 9.8325 13.4905 9.1945 13.3315 8.9155C13.172 8.6365 12.893 8.756 12.455 9.075C12.017 9.394 11.9775 8.3175 11.8585 7.8785C11.74 7.4405 12.575 6.8815 12.9675 6.5835C13.3595 6.2845 14.007 4.848 14.724 3.732C15.441 2.6155 16.4755 3.1735 16.754 3.6125C17.0335 4.0505 17.7485 3.7715 18.426 4.5695C19.103 5.367 18.2665 5.7255 17.5115 5.4015C16.754 5.0775 17.67 6.2045 18.107 6.5235C18.545 6.842 18.784 5.8055 18.9435 5.5665C19.1025 5.327 19.699 5.447 20.1365 4.8085C20.575 4.1705 21.5695 4.2905 22.1375 4.3605C22.706 4.431 22.5645 4.011 22.2065 3.6675C21.9415 3.4135 22.4835 3.636 23.1215 3.9475C27.238 6.384 30 10.8685 30 16ZM10.021 11.236C9.889 11.0995 10.1545 10.562 10.2735 10.4025C10.3935 10.243 9.9415 10.296 9.969 10.5225C9.9955 10.748 9.796 11.094 9.5175 11.187C9.239 11.28 8.9215 11.253 9.08 11.0005C9.2385 10.748 9.093 10.522 8.9735 10.2825C8.8545 10.043 9.6365 9.897 9.7965 9.751C9.9555 9.605 9.545 9.5115 9.5575 9.286C9.571 9.0595 9.664 8.8605 9.822 8.834C9.9815 8.8075 10.1305 8.7055 10.2735 8.7145C10.712 8.7415 10.578 9.738 10.738 10.0575C10.897 10.376 11.3485 10.762 11.3085 11.0405C11.2685 11.32 11.1835 11.4795 10.8585 11.3995C10.532 11.3195 10.0095 11.8115 9.8095 11.7185C9.61 11.625 10.1545 11.3725 10.021 11.236ZM7.162 5.6455C7.5605 5.8445 7.878 5.4835 8.156 5.406C8.4855 5.315 8.6735 6.483 8.3555 6.443C8.037 6.403 7.679 7.081 7.219 7.041C6.7585 7.001 6.9625 6.6825 6.445 6.204C6.334 6.101 6.2885 6.008 6.2845 5.9265C6.395 5.82 6.505 5.713 6.6195 5.6105C6.7985 5.563 7.011 5.57 7.162 5.6455ZM19.613 25.716C19.9845 25.6365 19.913 24.9295 20.25 24.892C20.9665 24.8125 20.2765 26.806 20.0115 27.3645C19.746 27.923 19.639 27.896 19.3865 27.5505C19.133 27.2055 19.215 26.6465 19.3865 26.381C19.5575 26.1145 19.241 25.796 19.613 25.716Z" fill="white"/>
</svg>
