<svg width="27" height="24" viewBox="0 0 27 24" fill="none" xmlns="http://www.w3.org/2000/svg">
<g clip-path="url(#clip0_2837_15228)">
<path fill-rule="evenodd" clip-rule="evenodd" d="M17.9137 11.3328C17.9506 11.159 17.8192 11 17.6483 11H9.23162C9.06065 11 8.9292 11.1592 8.96626 11.333C9.00091 11.4956 9.04216 11.6488 9.08994 11.7886L13.1774 23.8068C13.265 24.0644 13.6148 24.0644 13.7024 23.8068L17.7912 11.7886C17.8382 11.6487 17.8792 11.4956 17.9137 11.3328Z" fill="white"/>
<path fill-rule="evenodd" clip-rule="evenodd" d="M15.7418 0.213154C15.7094 0.0875235 15.5985 0 15.4717 0H11.4149C11.2882 0 11.1775 0.0873947 11.1449 0.212911L8.99501 8.52187C8.98316 8.56777 8.97323 8.61607 8.96438 8.66574C8.93334 8.83994 9.07004 9 9.24279 9H17.6386C17.8104 9 17.9466 8.84166 17.9155 8.66847C17.9064 8.61747 17.896 8.56778 17.8835 8.52044L15.7418 0.213154Z" fill="white"/>
<path fill-rule="evenodd" clip-rule="evenodd" d="M19.9714 7.97073C20.0378 8.21854 20.0866 8.48053 20.1252 8.7484C20.146 8.89178 20.2693 9 20.4161 9H26.5995C26.7838 9 26.9223 8.83243 26.8682 8.65865C26.7674 8.33483 26.6209 8.02079 26.4184 7.72881L22.1485 1.54605C21.4848 0.576905 20.3795 0 19.1929 0H18.2107C18.0202 0 17.8812 0.177867 17.9298 0.359485L19.9714 7.97073Z" fill="white"/>
<path fill-rule="evenodd" clip-rule="evenodd" d="M6.82614 12.5309C6.68967 12.1464 6.60019 11.712 6.53658 11.2584C6.51595 11.1112 6.3906 11 6.24109 11H0.283741C0.070347 11 -0.0711835 11.2181 0.0374671 11.4007C0.154522 11.5973 0.291334 11.7855 0.450425 11.9606L0.453639 11.9647L0.456957 11.969L9.56559 21.9025C9.78225 22.1388 10.1689 21.9086 10.0615 21.6073L6.82614 12.5309Z" fill="white"/>
<path fill-rule="evenodd" clip-rule="evenodd" d="M6.45882 9C6.60565 9 6.72882 8.89178 6.74951 8.7484C6.78826 8.48006 6.83721 8.21719 6.90474 7.9693L8.95015 0.359685C8.99897 0.178025 8.86013 0 8.66959 0H7.6928C6.50711 0 5.40412 0.578336 4.74379 1.54318L0.461085 7.72737C0.258342 8.01992 0.111691 8.33461 0.0115965 8.65968C-0.0418104 8.83317 0.0963655 9 0.280184 9H6.45882Z" fill="white"/>
<path fill-rule="evenodd" clip-rule="evenodd" d="M20.6399 11C20.4905 11 20.3649 11.1113 20.3442 11.2586C20.2806 11.7127 20.191 12.1482 20.0545 12.5318L16.8186 21.607C16.711 21.9087 17.0982 22.139 17.315 21.9022L26.4297 11.9528C26.5873 11.7804 26.7239 11.5956 26.8414 11.4022C26.9522 11.2199 26.8107 11 26.5963 11H20.6399Z" fill="white"/>
</g>
<defs>
<clipPath id="clip0_2837_15228">
<rect width="26.88" height="24" fill="white"/>
</clipPath>
</defs>
</svg>
