<svg width="32" height="32" viewBox="0 0 32 32" fill="none" xmlns="http://www.w3.org/2000/svg">
<path d="M6.28336 19.1956C6.26926 19.1956 6.26926 19.1829 6.25514 19.1829M4.81979 21.2927C6.71438 18.5595 8.68238 15.7233 9.85696 14.0207C10.2099 13.5096 10.3963 12.9054 10.3963 12.2828V5.13365C10.3963 4.50824 10.9045 4 11.5299 4H20.4381C21.0636 4 21.5717 4.50824 21.5717 5.13365V12.2743C21.5717 12.9012 21.7581 13.5055 22.1153 14.0207C23.0809 15.4099 25.1803 18.4296 27.1807 21.3153C29.1416 24.1416 27.1129 28.0056 23.6725 28L8.3125 27.976C4.87908 27.9704 2.86308 24.1135 4.81979 21.2927Z" stroke="white" stroke-width="2" stroke-linecap="round" stroke-linejoin="round"/>
<path d="M24.5593 17.5405C22.6239 17.3288 20.1519 17.6395 17.0304 18.8676C11.8041 20.9303 8.41442 20.4361 6.28125 19.1924" stroke="white" stroke-width="2" stroke-linecap="round" stroke-linejoin="round"/>
</svg>
