<svg width="32" height="32" viewBox="0 0 32 32" fill="none" xmlns="http://www.w3.org/2000/svg">
<path fill-rule="evenodd" clip-rule="evenodd" d="M27.728 20.9411C27.1227 20.0651 26.516 19.1904 25.9267 18.3411C25.8587 18.3464 25.7933 18.3651 25.7227 18.3557C23.428 18.1077 20.6987 18.5851 17.62 19.7957C14.7853 20.9157 12.2214 21.4757 9.94536 21.4757C7.99469 21.4757 6.26269 21.0504 4.74803 20.2264L4.27203 20.9131C3.20803 22.4491 3.08936 24.3531 3.95603 26.0064C4.82003 27.6557 6.44936 28.6397 8.31069 28.6397L23.672 28.6664C25.5173 28.6664 27.1933 27.6531 28.0467 26.0211C28.9107 24.3704 28.7907 22.4704 27.728 20.9411Z" fill="#98BCFF"/>
<path fill-rule="evenodd" clip-rule="evenodd" d="M16.8871 17.9347C19.6724 16.84 22.2257 16.296 24.5084 16.2987C24.1177 15.7387 23.7511 15.2093 23.4351 14.756L22.6644 13.648C22.3857 13.2427 22.2391 12.7693 22.2391 12.28V5.13201C22.2391 4.14001 21.4311 3.33334 20.4377 3.33334H11.5297C10.5364 3.33334 9.72972 4.14001 9.72972 5.13201V12.28C9.72972 12.7693 9.58306 13.2427 9.30839 13.6453L5.90039 18.564C8.59639 19.9213 12.3751 19.7187 16.8871 17.9347Z" fill="#98BCFF"/>
</svg>
