<svg width="24" height="24" viewBox="0 0 24 24" fill="none" xmlns="http://www.w3.org/2000/svg">
<path d="M19.9247 3.51438C15.2389 -1.17149 7.64189 -1.17141 2.95487 3.51432C2.58233 3.88686 2.25815 4.27709 1.95714 4.66537C1.80946 4.85587 1.78308 5.11382 1.88916 5.33027C1.99522 5.54671 2.21525 5.68392 2.45629 5.68392H20.4233C20.6638 5.68392 20.8834 5.54723 20.9898 5.33142C21.0961 5.11561 21.0706 4.85814 20.924 4.66742C20.6231 4.276 20.2964 3.88609 19.9247 3.51438Z" fill="white"/>
<path d="M2.45866 18.3152C2.2181 18.3152 1.99841 18.4518 1.8921 18.6677C1.78579 18.8835 1.81132 19.1409 1.95795 19.3316C2.25883 19.7231 2.58547 20.113 2.95718 20.4848C7.64308 25.1718 15.2401 25.1717 19.9271 20.4848C20.2996 20.1121 20.6237 19.7219 20.9247 19.3338C21.0725 19.1432 21.0988 18.8852 20.9928 18.6688C20.8867 18.4523 20.6666 18.3152 20.4256 18.3152H2.45866Z" fill="white"/>
<path d="M5.755 7.87177C6.34797 7.87177 6.82868 8.35247 6.82868 8.94545V15.2982C6.82868 15.7593 6.53428 16.1689 6.09723 16.3158C5.66017 16.4629 5.17809 16.3143 4.89947 15.947L2.14737 12.3177V15.4825C2.14737 16.0756 1.66667 16.5562 1.07368 16.5562C0.480708 16.5562 0 16.0756 0 15.4825V9.12488C0 8.66379 0.294417 8.25417 0.731457 8.10721C1.16851 7.96024 1.65061 8.10872 1.92921 8.47614L4.68131 12.1054V8.94545C4.68131 8.35247 5.16202 7.87177 5.755 7.87177Z" fill="white"/>
<path d="M16.121 8.12534C16.7038 8.01614 17.2649 8.4001 17.3741 8.98293L17.9165 11.878L18.6552 10.3758C18.8358 10.0086 19.2093 9.77606 19.6186 9.77593C20.0277 9.77593 20.4013 10.0085 20.582 10.3757L21.3218 11.8792L21.8645 8.98293C21.9736 8.4001 22.5347 8.01614 23.1175 8.12534C23.7003 8.23454 24.0843 8.79554 23.9751 9.37839L22.8382 15.446C22.7531 15.9005 22.3866 16.2494 21.9285 16.312C21.4705 16.3748 21.0237 16.1372 20.8196 15.7224L19.6189 13.2822L18.4191 15.7221C18.2151 16.1371 17.7683 16.3747 17.3101 16.312C16.852 16.2495 16.4854 15.9005 16.4003 15.446L15.2634 9.37839C15.1542 8.79554 15.5382 8.23454 16.121 8.12534Z" fill="white"/>
<path d="M8.8623 9.18068C8.8623 8.5877 9.343 8.10699 9.93601 8.10699H13.258C13.851 8.10699 14.3317 8.5877 14.3317 9.18068C14.3317 9.77368 13.851 10.2543 13.258 10.2543H11.0097V11.1412H12.6509C13.2438 11.1412 13.7246 11.6218 13.7246 12.2149C13.7246 12.8078 13.2438 13.2885 12.6509 13.2885H11.0097V14.1746H13.258C13.851 14.1746 14.3317 14.6553 14.3317 15.2483C14.3317 15.8413 13.851 16.322 13.258 16.322H9.93601C9.343 16.322 8.8623 15.8413 8.8623 15.2483V9.18068Z" fill="white"/>
</svg>
