<svg width="19" height="21" viewBox="0 0 19 21" fill="none" xmlns="http://www.w3.org/2000/svg">
<path d="M17.14 12.158L2.99998 20.628C2.69756 20.8027 2.35468 20.8951 2.00546 20.896C1.65624 20.897 1.31285 20.8065 1.00945 20.6336C0.706057 20.4607 0.45323 20.2113 0.276127 19.9103C0.0990238 19.6093 0.0038147 19.2672 -2.28882e-05 18.918L-2.28882e-05 1.97802C0.0038147 1.62882 0.0990238 1.28671 0.276127 0.985731C0.45323 0.68475 0.706057 0.435385 1.00945 0.262449C1.31285 0.0895138 1.65624 -0.000967026 2.00546 1.14441e-05C2.35468 0.000989914 2.69756 0.0933914 2.99998 0.268023L17.14 8.73802C17.4339 8.91629 17.6769 9.1673 17.8455 9.46683C18.0141 9.76635 18.1027 10.1043 18.1027 10.448C18.1027 10.7918 18.0141 11.1297 17.8455 11.4292C17.6769 11.7287 17.4339 11.9798 17.14 12.158Z" fill="currentColor"/>
</svg>
