<?xml version="1.0" encoding="UTF-8"?>
<svg width="32" height="32" viewBox="0 0 24 24" fill="none" xmlns="http://www.w3.org/2000/svg">
<path fill-rule="evenodd" clip-rule="evenodd" d="M21.199 9.08906C21.3647 9.08906 21.499 8.95475 21.499 8.78906V8.70906C21.499 5.91606 19.705 4.03906 17.035 4.03906H6.96398C4.29398 4.03906 2.50098 5.91606 2.50098 8.70906V8.78906C2.50098 8.95475 2.63529 9.08906 2.80098 9.08906H21.199Z" fill="#98BCFF"></path>
<path fill-rule="evenodd" clip-rule="evenodd" d="M2.80098 10.5894C2.63529 10.5894 2.50098 10.7237 2.50098 10.8894V15.2894C2.50098 18.0824 4.29398 19.9594 6.96398 19.9594H17.034C19.705 19.9594 21.499 18.0824 21.499 15.2894V10.8894C21.499 10.7237 21.3647 10.5894 21.199 10.5894H2.80098Z" fill="#98BCFF"></path>
</svg>