<svg width="32" height="32" viewBox="0 0 32 32" fill="none" xmlns="http://www.w3.org/2000/svg">
<path fill-rule="evenodd" clip-rule="evenodd" d="M4.69293 6.92717C5.81665 5.72163 7.41324 5.05209 9.28519 5.05209H22.7135C24.5899 5.05209 26.1873 5.72116 27.3107 6.92756C28.4265 8.12589 29 9.77317 29 11.6071V20.3911C29 22.2256 28.4265 23.8731 27.3104 25.0713C26.1868 26.2776 24.5889 26.9461 22.7123 26.9461H9.28519C7.40892 26.9461 5.81172 26.2775 4.68861 25.0711C3.57304 23.8728 3 22.2255 3 20.3911V11.6071C3 9.77201 3.57648 8.12492 4.69293 6.92717ZM6.15593 8.29087C5.44189 9.05689 5 10.1873 5 11.6071V20.3911C5 21.8129 5.44015 22.9432 6.15247 23.7083C6.85725 24.4653 7.90265 24.9461 9.28519 24.9461H22.7123C24.0956 24.9461 25.1416 24.4653 25.8469 23.7081C26.5596 22.9429 27 21.8128 27 20.3911V11.6071C27 10.1861 26.5597 9.05592 25.8469 8.29047C25.1417 7.53309 24.0959 7.05209 22.7135 7.05209H9.28519C7.90871 7.05209 6.86269 7.53263 6.15593 8.29087Z" fill="white"/>
<path fill-rule="evenodd" clip-rule="evenodd" d="M3 13.1111C3 12.5589 3.44772 12.1111 4 12.1111H28C28.5523 12.1111 29 12.5589 29 13.1111C29 13.6635 28.5523 14.1112 28 14.1112H4C3.44772 14.1112 3 13.6635 3 13.1111Z" fill="white"/>
</svg>
