<svg width="26" height="24" viewBox="0 0 26 24" fill="none" xmlns="http://www.w3.org/2000/svg">
<path d="M24.0714 14.5065C23.6347 14.5065 23.2344 14.7269 23.0161 15.0941C22.7977 15.4614 22.7977 15.9388 23.0161 16.306C23.2344 16.6733 23.6347 16.912 24.0714 16.8937C24.7264 16.8753 25.2358 16.3428 25.2358 15.7001C25.254 15.0574 24.7264 14.5249 24.0714 14.5065Z" fill="white"/>
<path d="M22.5612 17.6282C21.9972 17.6282 21.5423 18.0872 21.5423 18.6381C21.5423 19.2073 21.9972 19.6664 22.5612 19.6664C23.1252 19.6664 23.5801 19.2073 23.5801 18.6381C23.5801 18.0872 23.1252 17.6282 22.5612 17.6282Z" fill="white"/>
<path d="M20.3514 21.8316C20.8335 21.8154 21.2112 21.4078 21.1952 20.9214C21.1791 20.4349 20.7754 20.0536 20.2933 20.0698C19.8113 20.086 19.4335 20.4935 19.4496 20.98C19.4656 21.4665 19.8694 21.8478 20.3514 21.8316Z" fill="white"/>
<path d="M17.7942 21.723C17.3939 21.723 17.0846 22.0352 17.0846 22.4392C17.0846 22.8432 17.3939 23.1553 17.7942 23.1553C18.1945 23.1553 18.5038 22.8432 18.5038 22.4392C18.5038 22.0352 18.1945 21.723 17.7942 21.723Z" fill="white"/>
<path d="M15.3198 22.5861C14.9923 22.5861 14.7194 22.8615 14.7194 23.192C14.7194 23.5226 14.9923 23.798 15.3198 23.798C15.6473 23.798 15.9202 23.5226 15.9202 23.192C15.9384 22.8615 15.6655 22.5861 15.3198 22.5861Z" fill="white"/>
<path d="M13.0091 22.935C12.718 22.935 12.4814 23.1737 12.4814 23.4675C12.4814 23.7613 12.718 24 13.0091 24C13.3002 24 13.5367 23.7613 13.5367 23.4675C13.5185 23.1737 13.282 22.935 13.0091 22.935Z" fill="white"/>
<path d="M10.6802 22.5861C10.3527 22.5861 10.0797 22.8615 10.0797 23.192C10.0797 23.5226 10.3527 23.798 10.6802 23.798C11.0077 23.798 11.2806 23.5226 11.2806 23.192C11.2806 22.8615 11.0077 22.5861 10.6802 22.5861Z" fill="white"/>
<path d="M8.20568 21.7047C7.95096 21.7047 7.71443 21.8332 7.58707 22.0536C7.45971 22.2739 7.45971 22.5493 7.58707 22.7697C7.71443 22.9901 7.95096 23.1186 8.20568 23.1186C8.58777 23.1186 8.91527 22.8064 8.91527 22.4024C8.89707 22.0352 8.58777 21.723 8.20568 21.7047Z" fill="white"/>
<path d="M5.67672 20.0704C5.36741 20.0704 5.0763 20.2357 4.91255 20.5111C4.7488 20.7865 4.7488 21.1171 4.91255 21.3925C5.0763 21.6679 5.34922 21.8332 5.67672 21.8332C6.14977 21.8332 6.55005 21.4476 6.55005 20.9518C6.55005 20.4744 6.16797 20.0704 5.67672 20.0704Z" fill="white"/>
<path d="M3.43872 17.6282C2.87469 17.6282 2.41983 18.0872 2.41983 18.6565C2.41983 19.2257 2.87469 19.6848 3.43872 19.6848C4.00275 19.6848 4.45762 19.2257 4.45762 18.6565C4.43942 18.0872 4.00275 17.6282 3.43872 17.6282Z" fill="white"/>
<path d="M1.9286 14.5065C1.49193 14.4881 1.09165 14.7269 0.873315 15.0941C0.654981 15.4614 0.654981 15.9388 0.873315 16.306C1.09165 16.6733 1.49193 16.912 1.9286 16.8937C2.5836 16.8753 3.09305 16.3428 3.09305 15.7001C3.09305 15.0574 2.56541 14.5249 1.9286 14.5065Z" fill="white"/>
<path d="M1.38278 10.6136C0.618614 10.6136 0 11.2379 0 12.0092C0 12.7804 0.618614 13.4047 1.38278 13.4047C2.14695 13.4047 2.76557 12.7804 2.76557 12.0092C2.74737 11.2379 2.14695 10.6136 1.38278 10.6136Z" fill="white"/>
<path d="M1.9286 7.08799C1.49193 7.08799 1.09165 7.30834 0.873315 7.6756C0.654981 8.04285 0.654981 8.52028 0.873315 8.88753C1.09165 9.25478 1.49193 9.4935 1.9286 9.47514C2.5836 9.45677 3.09305 8.92426 3.09305 8.28156C3.09305 7.63887 2.56541 7.10635 1.9286 7.08799Z" fill="white"/>
<path d="M3.43876 4.31522C3.07487 4.31522 2.72917 4.49885 2.54723 4.82938C2.36528 5.14154 2.36528 5.54552 2.54723 5.85769C2.72917 6.16985 3.07487 6.37184 3.43876 6.37184C3.98459 6.35348 4.43946 5.91278 4.43946 5.34353C4.42126 4.79265 3.98459 4.33359 3.43876 4.31522Z" fill="white"/>
<path d="M5.67668 2.14843C5.20362 2.14843 4.80334 2.53405 4.80334 3.02984C4.80334 3.50727 5.18543 3.91125 5.67668 3.91125C6.14974 3.91125 6.55002 3.52563 6.55002 3.02984C6.55002 2.55241 6.16793 2.14843 5.67668 2.14843Z" fill="white"/>
<path d="M8.20577 0.844681C7.82369 0.844681 7.49619 1.15685 7.49619 1.56082C7.49619 1.94644 7.80549 2.27697 8.20577 2.27697C8.58786 2.27697 8.91536 1.9648 8.91536 1.56082C8.89716 1.17521 8.58786 0.844681 8.20577 0.844681Z" fill="white"/>
<path d="M10.6801 0.183624C10.3344 0.183624 10.0615 0.459064 10.0615 0.807955C10.0615 1.15685 10.3344 1.43229 10.6801 1.43229C11.0076 1.43229 11.2806 1.15685 11.2806 0.826318C11.2624 0.459064 11.0076 0.183624 10.6801 0.183624Z" fill="white"/>
<path d="M12.9909 0C12.6998 0 12.4633 0.238715 12.4633 0.532517C12.4633 0.82632 12.6998 1.06503 12.9909 1.06503C13.282 1.06503 13.5185 0.82632 13.5185 0.532517C13.5185 0.238715 13.282 0 12.9909 0Z" fill="white"/>
<path d="M15.3198 0.183624C14.9923 0.183624 14.7194 0.459064 14.7194 0.789592C14.7194 1.12012 14.9923 1.39556 15.3198 1.39556C15.6473 1.39556 15.9202 1.12012 15.9202 0.789592C15.9384 0.459064 15.6655 0.183624 15.3198 0.183624Z" fill="white"/>
<path d="M17.7942 0.844681C17.5395 0.844681 17.303 0.973219 17.1756 1.19357C17.0483 1.41392 17.0483 1.68936 17.1756 1.90972C17.303 2.13007 17.5395 2.25861 17.7942 2.25861C18.1763 2.25861 18.5038 1.94644 18.5038 1.54246C18.5038 1.13848 18.1945 0.844681 17.7942 0.844681Z" fill="white"/>
<path d="M20.3233 2.16679C19.8502 2.16679 19.4499 2.55241 19.4499 3.0482C19.4499 3.52563 19.832 3.92961 20.3233 3.92961C20.7963 3.92961 21.1966 3.54399 21.1966 3.0482C21.1966 2.55241 20.7963 2.16679 20.3233 2.16679Z" fill="white"/>
<path d="M22.5612 4.31522C21.9972 4.31522 21.5423 4.77429 21.5423 5.34353C21.5423 5.91278 21.9972 6.37184 22.5612 6.37184C23.1252 6.37184 23.5801 5.91278 23.5801 5.34353C23.5801 4.77429 23.1252 4.31522 22.5612 4.31522Z" fill="white"/>
<path d="M24.0714 7.08799C23.6347 7.08799 23.2344 7.30834 23.0161 7.6756C22.7977 8.04285 22.7977 8.52028 23.0161 8.88753C23.2344 9.25478 23.6347 9.4935 24.0714 9.47514C24.7264 9.45677 25.2358 8.92426 25.2358 8.28156C25.2358 7.62051 24.7264 7.08799 24.0714 7.08799Z" fill="white"/>
<path d="M18.613 13.8271C18.4129 13.8271 18.2309 13.9189 18.14 14.0842C18.049 14.2494 18.049 14.4698 18.14 14.635C18.2309 14.8003 18.4129 14.9105 18.613 14.8921C18.9041 14.8738 19.1225 14.635 19.1225 14.3596C19.1407 14.0842 18.9041 13.8455 18.613 13.8271Z" fill="white"/>
<path d="M17.2848 15.8286C17.0846 15.8286 16.9027 15.9204 16.8117 16.0857C16.7208 16.251 16.7208 16.4713 16.8117 16.6366C16.9027 16.8018 17.1028 16.912 17.2848 16.8936C17.5759 16.8753 17.7942 16.6366 17.7942 16.3611C17.7942 16.0857 17.5759 15.847 17.2848 15.8286Z" fill="white"/>
<path d="M15.3016 17.114C15.1015 17.114 14.9013 17.2242 14.7922 17.4078C14.683 17.5914 14.683 17.8118 14.7922 17.9954C14.9013 18.179 15.0833 18.2892 15.3016 18.2892C15.6291 18.2892 15.8838 18.0321 15.8838 17.7016C15.8838 17.3711 15.6291 17.114 15.3016 17.114Z" fill="white"/>
<path d="M12.9727 17.4629C12.536 17.4629 12.1903 17.8118 12.1903 18.2525C12.1903 18.6932 12.536 19.0421 12.9727 19.0421C13.4094 19.0421 13.7551 18.6932 13.7551 18.2525C13.7369 17.8118 13.3912 17.4629 12.9727 17.4629Z" fill="white"/>
<path d="M10.6256 16.9855C10.1343 16.9855 9.73407 17.3894 9.73407 17.8852C9.73407 18.381 10.1343 18.785 10.6256 18.785C11.1169 18.785 11.5171 18.381 11.5171 17.8852C11.5171 17.3894 11.1169 16.9855 10.6256 16.9855Z" fill="white"/>
<path d="M8.515 15.4797C7.96917 15.4797 7.5325 15.9204 7.5325 16.4713C7.5325 17.0222 7.96917 17.4629 8.515 17.4629C9.06084 17.4629 9.49751 17.0222 9.49751 16.4713C9.49751 15.9204 9.06084 15.4797 8.515 15.4797Z" fill="white"/>
<path d="M7.11407 13.4598C6.65921 13.4598 6.29532 13.8271 6.29532 14.2862C6.29532 14.7452 6.65921 15.1125 7.11407 15.1125C7.56893 15.1125 7.93283 14.7452 7.93283 14.2862C7.95102 13.8454 7.56893 13.4598 7.11407 13.4598Z" fill="white"/>
<path d="M6.78653 11.2563C6.44083 11.2563 6.14972 11.5501 6.14972 11.899C6.14972 12.2479 6.44083 12.5417 6.78653 12.5417C7.13222 12.5417 7.42334 12.2479 7.42334 11.899C7.42334 11.5318 7.15042 11.2563 6.78653 11.2563Z" fill="white"/>
<path d="M7.35058 9.08952C7.05947 9.08952 6.82294 9.32824 6.82294 9.62204C6.82294 9.91584 7.05947 10.1546 7.35058 10.1546C7.64169 10.1546 7.87822 9.91584 7.87822 9.62204C7.89641 9.32824 7.64169 9.08952 7.35058 9.08952Z" fill="white"/>
<path d="M8.69702 7.10635C8.49688 7.10635 8.31493 7.19817 8.22396 7.36343C8.13299 7.52869 8.13299 7.74905 8.22396 7.91431C8.31493 8.07957 8.51507 8.18975 8.69702 8.17139C8.98813 8.17139 9.22466 7.93267 9.22466 7.63887C9.20646 7.34507 8.96994 7.10635 8.69702 7.10635Z" fill="white"/>
<path d="M10.662 5.71079C10.3345 5.71079 10.0797 5.96787 10.0797 6.2984C10.0797 6.62893 10.3345 6.886 10.662 6.886C10.9895 6.886 11.2442 6.62893 11.2442 6.2984C11.2442 5.98623 10.9895 5.71079 10.662 5.71079Z" fill="white"/>
<path d="M13.7874 5.76817C13.8039 5.33239 13.4673 4.96556 13.0356 4.94882C12.6038 4.93209 12.2403 5.27179 12.2237 5.70756C12.2071 6.14334 12.5437 6.51017 12.9755 6.52691C13.4073 6.54364 13.7708 6.20394 13.7874 5.76817Z" fill="white"/>
<path d="M15.338 5.215C14.8467 5.215 14.4464 5.61897 14.4464 6.11477C14.4464 6.61056 14.8467 7.01454 15.338 7.01454C15.8292 7.01454 16.2295 6.61056 16.2295 6.11477C16.2295 5.61897 15.8292 5.215 15.338 5.215Z" fill="white"/>
<path d="M17.4485 6.53711C16.9027 6.53711 16.466 6.97781 16.466 7.52869C16.466 8.07957 16.9027 8.52028 17.4485 8.52028C17.9944 8.52028 18.431 8.07957 18.431 7.52869C18.431 6.97781 17.9944 6.53711 17.4485 6.53711Z" fill="white"/>
<path d="M18.8495 8.86917C18.3947 8.86917 18.0308 9.23642 18.0308 9.69549C18.0308 10.1546 18.3947 10.5218 18.8495 10.5218C19.3044 10.5218 19.6683 10.1546 19.6683 9.69549C19.6683 9.23642 19.3044 8.86917 18.8495 8.86917Z" fill="white"/>
<path d="M16.7026 13.5149C16.9739 13.5149 17.1938 13.2929 17.1938 13.0191C17.1938 12.7453 16.9739 12.5233 16.7026 12.5233C16.4313 12.5233 16.2113 12.7453 16.2113 13.0191C16.2113 13.2929 16.4313 13.5149 16.7026 13.5149Z" fill="white"/>
<path d="M15.7382 14.0658C15.338 14.0658 15.0105 14.3963 15.0105 14.8003C15.0105 15.2043 15.338 15.5348 15.7382 15.5348C16.1385 15.5348 16.466 15.2043 16.466 14.8003C16.4842 14.3963 16.1567 14.0658 15.7382 14.0658Z" fill="white"/>
<path d="M13.8642 15.0574C13.4457 15.0574 13.1 15.4063 13.1 15.8286C13.1 16.251 13.4457 16.5999 13.8642 16.5999C14.2827 16.5999 14.6284 16.251 14.6284 15.8286C14.6284 15.4063 14.2827 15.0574 13.8642 15.0574Z" fill="white"/>
<path d="M11.6445 15.0023C11.408 15.0023 11.1714 15.1308 11.0623 15.3512C10.9349 15.5715 10.9349 15.8286 11.0623 16.0306C11.1896 16.251 11.408 16.3795 11.6445 16.3795C12.0266 16.3795 12.3177 16.0673 12.3177 15.7001C12.3359 15.3145 12.0266 15.0023 11.6445 15.0023Z" fill="white"/>
<path d="M10.0069 13.8822C9.73402 13.8822 9.51569 14.1025 9.51569 14.378C9.51569 14.6534 9.73402 14.8738 10.0069 14.8738C10.2799 14.8738 10.4982 14.6534 10.4982 14.378C10.5164 14.1209 10.2799 13.8822 10.0069 13.8822Z" fill="white"/>
<path d="M9.35196 12.4315C9.15182 12.4315 8.98807 12.5968 8.98807 12.7988C8.98807 13.0008 9.15182 13.166 9.35196 13.166C9.5521 13.166 9.71585 13.0008 9.71585 12.7988C9.71585 12.5968 9.5521 12.4315 9.35196 12.4315Z" fill="white"/>
<path d="M9.31559 10.5402C9.04268 10.5402 8.82434 10.7605 8.82434 11.036C8.82434 11.3114 9.04268 11.5318 9.31559 11.5318C9.58851 11.5318 9.80685 11.3114 9.80685 11.036C9.80685 10.7605 9.58851 10.5402 9.31559 10.5402Z" fill="white"/>
<path d="M10.2799 8.50191C9.87963 8.50191 9.55212 8.83244 9.55212 9.23642C9.55212 9.6404 9.87963 9.97093 10.2799 9.97093C10.6802 9.97093 11.0077 9.6404 11.0077 9.23642C11.0077 8.83244 10.6802 8.50191 10.2799 8.50191Z" fill="white"/>
<path d="M12.1539 7.43688C11.7355 7.43688 11.3898 7.78577 11.3898 8.20811C11.3898 8.63046 11.7355 8.97935 12.1539 8.97935C12.5724 8.97935 12.9181 8.63046 12.9181 8.20811C12.9181 7.78577 12.5724 7.43688 12.1539 7.43688Z" fill="white"/>
<path d="M14.3736 7.6756C14.1189 7.6756 13.9006 7.80414 13.7732 8.00613C13.6459 8.22648 13.6459 8.48356 13.7732 8.70391C13.9006 8.92426 14.1371 9.0528 14.3736 9.03444C14.7375 9.01607 15.0286 8.72227 15.0286 8.35502C15.0286 7.98776 14.7375 7.69396 14.3736 7.6756Z" fill="white"/>
<path d="M15.993 9.14461C15.7201 9.14461 15.5018 9.36496 15.5018 9.6404C15.5018 9.91584 15.7201 10.1362 15.993 10.1362C16.2659 10.1362 16.4843 9.91584 16.4843 9.6404C16.5025 9.36496 16.2841 9.14461 15.993 9.14461Z" fill="white"/>
<path d="M16.6844 10.8891C16.4843 10.8891 16.3205 11.0543 16.3205 11.2563C16.3205 11.4583 16.4843 11.6236 16.6844 11.6236C16.8846 11.6236 17.0483 11.4583 17.0483 11.2563C17.0483 11.0543 16.8846 10.8891 16.6844 10.8891Z" fill="white"/>
<path d="M19.177 11.4583C18.8313 11.4583 18.5402 11.7521 18.5402 12.101C18.5402 12.4499 18.8313 12.7437 19.177 12.7437C19.5227 12.7437 19.8138 12.4499 19.8138 12.101C19.8138 11.7521 19.5227 11.4583 19.177 11.4583Z" fill="white"/>
<path d="M21.8153 12.2479C21.4332 12.2479 21.1421 12.5601 21.1421 12.9273C21.1421 13.3129 21.4514 13.6067 21.8153 13.6067C22.1973 13.6067 22.4885 13.2946 22.4885 12.9273C22.4885 12.5601 22.1973 12.2479 21.8153 12.2479Z" fill="white"/>
<path d="M21.1421 14.6534C20.7964 14.6534 20.5052 14.9472 20.5052 15.2961C20.5052 15.645 20.7964 15.9388 21.1421 15.9388C21.4878 15.9388 21.7789 15.645 21.7789 15.2961C21.7789 14.9472 21.5059 14.6534 21.1421 14.6534Z" fill="white"/>
<path d="M19.9958 16.6733C19.7046 16.6733 19.4499 16.912 19.4499 17.2242C19.4499 17.518 19.6864 17.7751 19.9958 17.7751C20.2869 17.7751 20.5234 17.518 20.5234 17.2242C20.5234 16.9304 20.2869 16.6917 19.9958 16.6733Z" fill="white"/>
<path d="M18.613 18.179C18.4492 18.179 18.2855 18.2709 18.1945 18.4178C18.1035 18.5647 18.1035 18.7483 18.1945 18.8952C18.2855 19.0421 18.431 19.1339 18.613 19.1339C18.8677 19.1339 19.086 18.9319 19.086 18.6565C19.086 18.3994 18.8677 18.179 18.613 18.179Z" fill="white"/>
<path d="M17.1575 19.2808C16.9391 19.2808 16.7572 19.4644 16.7572 19.6848C16.7572 19.9051 16.9391 20.0888 17.1575 20.0888C17.3758 20.0888 17.5577 19.9051 17.5577 19.6848C17.5577 19.4644 17.3758 19.2808 17.1575 19.2808Z" fill="white"/>
<path d="M15.5017 19.9051C15.247 19.9051 15.0287 20.1071 15.0287 20.3826C15.0287 20.6396 15.2288 20.86 15.5017 20.86C15.7565 20.86 15.9748 20.658 15.9748 20.3826C15.9566 20.1071 15.7565 19.9051 15.5017 19.9051Z" fill="white"/>
<path d="M13.5549 20.2173C13.2638 20.2173 13.0091 20.456 13.0091 20.7682C13.0091 21.062 13.2456 21.3191 13.5549 21.3191C13.846 21.3191 14.1008 21.0803 14.1008 20.7682C14.0826 20.456 13.846 20.2173 13.5549 20.2173Z" fill="white"/>
<path d="M11.3352 19.9969C10.9531 19.9969 10.6438 20.3091 10.6438 20.6947C10.6438 21.0803 10.9531 21.3925 11.3352 21.3925C11.7173 21.3925 12.0266 21.0803 12.0266 20.6947C12.0266 20.3091 11.7173 19.9969 11.3352 19.9969Z" fill="white"/>
<path d="M8.98806 19.1523C8.5332 19.1523 8.16931 19.5195 8.16931 19.9786C8.16931 20.4376 8.5332 20.8049 8.98806 20.8049C9.44293 20.8049 9.80682 20.4376 9.80682 19.9786C9.82501 19.5195 9.44293 19.1523 8.98806 19.1523Z" fill="white"/>
<path d="M6.93209 17.5731C6.5864 17.5731 6.25889 17.7567 6.07695 18.0505C5.895 18.3627 5.895 18.7299 6.07695 19.0421C6.25889 19.3543 6.5864 19.5379 6.93209 19.5195C7.45973 19.5012 7.87821 19.0788 7.87821 18.5463C7.87821 18.0321 7.45973 17.5914 6.93209 17.5731Z" fill="white"/>
<path d="M5.2036 15.2226C4.62137 15.2226 4.14832 15.7001 4.14832 16.2877C4.14832 16.8753 4.62137 17.3527 5.2036 17.3527C5.78582 17.3527 6.25888 16.8753 6.25888 16.2877C6.25888 15.6817 5.78582 15.2226 5.2036 15.2226Z" fill="white"/>
<path d="M5.06348 13.6577C5.09625 13.1923 4.74903 12.7883 4.28796 12.7552C3.82688 12.7222 3.42654 13.0726 3.39377 13.5379C3.36101 14.0033 3.70822 14.4073 4.1693 14.4404C4.63038 14.4734 5.03072 14.123 5.06348 13.6577Z" fill="white"/>
<path d="M4.84895 11.0956C4.86951 10.7209 4.58523 10.4004 4.21399 10.3796C3.84275 10.3589 3.52513 10.6458 3.50457 11.0205C3.48401 11.3951 3.76829 11.7157 4.13953 11.7364C4.51077 11.7572 4.82839 11.4703 4.84895 11.0956Z" fill="white"/>
<path d="M4.85797 8.04285C4.51227 8.04285 4.22116 8.33665 4.22116 8.68554C4.22116 9.03443 4.51227 9.32823 4.85797 9.32823C5.20366 9.32823 5.49478 9.03443 5.49478 8.68554C5.49478 8.33665 5.20366 8.04285 4.85797 8.04285Z" fill="white"/>
<path d="M6.00418 6.22495C5.80404 6.22495 5.62209 6.31676 5.53112 6.50039C5.44015 6.66565 5.44015 6.886 5.53112 7.05127C5.62209 7.21653 5.82223 7.3267 6.00418 7.3267C6.29529 7.3267 6.53182 7.06963 6.53182 6.77583C6.53182 6.46366 6.29529 6.22495 6.00418 6.22495Z" fill="white"/>
<path d="M7.38697 4.8661C7.13224 4.8661 6.91391 5.06809 6.91391 5.34353C6.91391 5.60061 7.11405 5.82096 7.38697 5.82096C7.65988 5.82096 7.86002 5.61897 7.86002 5.34353C7.86002 5.08646 7.64169 4.8661 7.38697 4.8661Z" fill="white"/>
<path d="M8.84251 3.91125C8.62417 3.91125 8.44223 4.09487 8.44223 4.31523C8.44223 4.53558 8.62417 4.7192 8.84251 4.7192C9.06084 4.7192 9.24279 4.53558 9.24279 4.31523C9.24279 4.07651 9.06084 3.91125 8.84251 3.91125Z" fill="white"/>
<path d="M10.4983 3.15838C10.2435 3.15838 10.0252 3.36037 10.0252 3.63581C10.0252 3.89288 10.2253 4.11324 10.4983 4.11324C10.753 4.11324 10.9713 3.91125 10.9713 3.63581C10.9713 3.36037 10.753 3.15838 10.4983 3.15838Z" fill="white"/>
<path d="M12.445 2.68095C12.2449 2.68095 12.0629 2.77277 11.9719 2.95639C11.881 3.12166 11.881 3.34201 11.9719 3.50727C12.0629 3.67254 12.2631 3.78271 12.445 3.78271C12.7361 3.78271 12.9726 3.52564 12.9726 3.23183C12.9726 2.93803 12.7361 2.69932 12.445 2.68095Z" fill="white"/>
<path d="M14.6648 2.58913C14.41 2.58913 14.1735 2.71767 14.0461 2.93802C13.9188 3.15838 13.9188 3.43382 14.0461 3.65417C14.1735 3.87452 14.41 4.00306 14.6648 4.00306C15.0468 4.00306 15.3561 3.67253 15.3561 3.28692C15.3561 2.9013 15.0468 2.58913 14.6648 2.58913Z" fill="white"/>
<path d="M16.9391 3.12165C16.4842 3.12165 16.1021 3.4889 16.1021 3.96633C16.1021 4.4254 16.466 4.81102 16.9391 4.81102C17.394 4.81102 17.776 4.44376 17.776 3.96633C17.776 3.50727 17.394 3.12165 16.9391 3.12165Z" fill="white"/>
<path d="M19.0861 4.44376C18.5402 4.44376 18.1218 4.88447 18.1218 5.41698C18.1218 5.9495 18.5584 6.39021 19.0861 6.39021C19.6319 6.39021 20.0504 5.9495 20.0504 5.41698C20.0504 4.88447 19.6137 4.44376 19.0861 4.44376Z" fill="white"/>
<path d="M20.7963 6.64729C20.4143 6.64729 20.0686 6.84927 19.8684 7.1798C19.6683 7.51033 19.6683 7.91431 19.8684 8.24484C20.0686 8.57537 20.4143 8.77735 20.7963 8.77735C21.3786 8.75899 21.8334 8.29993 21.8334 7.71232C21.8152 7.14308 21.3604 6.66565 20.7963 6.64729Z" fill="white"/>
<path d="M21.7607 9.56695C21.4695 9.56695 21.1784 9.71385 21.0329 9.97093C20.8873 10.228 20.8873 10.5585 21.0329 10.8156C21.1784 11.0727 21.4695 11.238 21.7607 11.2196C22.2155 11.2012 22.5612 10.834 22.5612 10.3933C22.5612 9.95256 22.2155 9.58531 21.7607 9.56695Z" fill="white"/>
<path d="M26 11.9908C26 12.7621 25.3814 13.3864 24.6172 13.3864C23.8531 13.3864 23.2344 12.7621 23.2344 11.9908C23.2344 11.2196 23.8531 10.5953 24.6172 10.5953C25.3814 10.6136 26 11.238 26 11.9908Z" fill="white"/>
</svg>
