<svg width="32" height="33" viewBox="0 0 32 33" fill="none" xmlns="http://www.w3.org/2000/svg">
<path d="M16.623 3C17.6313 3 18.5442 3.56 19.0484 4.38667C19.2937 4.78667 19.4572 5.28 19.4163 5.8C19.3891 6.2 19.5117 6.6 19.7297 6.97333C20.4247 8.10667 21.9644 8.53333 23.1635 7.89333C24.5125 7.12 26.2157 7.58667 26.9924 8.90667L27.9054 10.48C28.6957 11.8 28.2597 13.4933 26.897 14.2533C25.7388 14.9333 25.33 16.44 26.025 17.5867C26.243 17.9467 26.4883 18.2533 26.8698 18.44C27.3467 18.6933 27.7146 19.0933 27.9735 19.4933C28.4777 20.32 28.4368 21.3333 27.9463 22.2267L26.9924 23.8267C26.4883 24.68 25.5481 25.2133 24.5806 25.2133C24.1037 25.2133 23.5723 25.08 23.1362 24.8133C22.782 24.5867 22.3732 24.5067 21.9371 24.5067C20.5882 24.5067 19.4572 25.6133 19.4163 26.9333C19.4163 28.4667 18.1627 29.6667 16.5957 29.6667H14.7426C13.1619 29.6667 11.9083 28.4667 11.9083 26.9333C11.8811 25.6133 10.7501 24.5067 9.40114 24.5067C8.95147 24.5067 8.54269 24.5867 8.20204 24.8133C7.766 25.08 7.22096 25.2133 6.75767 25.2133C5.77659 25.2133 4.83639 24.68 4.33223 23.8267L3.39203 22.2267C2.88786 21.36 2.86061 20.32 3.36477 19.4933C3.58279 19.0933 3.99157 18.6933 4.45486 18.44C4.83639 18.2533 5.08166 17.9467 5.31331 17.5867C5.99461 16.44 5.58583 14.9333 4.42761 14.2533C3.07863 13.4933 2.64259 11.8 3.41928 10.48L4.33223 8.90667C5.12254 7.58667 6.81218 7.12 8.17479 7.89333C9.36026 8.53333 10.9 8.10667 11.5949 6.97333C11.813 6.6 11.9356 6.2 11.9083 5.8C11.8811 5.28 12.031 4.78667 12.2899 4.38667C12.794 3.56 13.707 3.02667 14.7017 3H16.623ZM15.6828 12.5733C13.5435 12.5733 11.813 14.2533 11.813 16.3467C11.813 18.44 13.5435 20.1067 15.6828 20.1067C17.8221 20.1067 19.5117 18.44 19.5117 16.3467C19.5117 14.2533 17.8221 12.5733 15.6828 12.5733Z" fill="#98BCFF"/>
</svg>
