<svg width="32" height="32" viewBox="0 0 32 32" fill="none" xmlns="http://www.w3.org/2000/svg">
<path fill-rule="evenodd" clip-rule="evenodd" d="M27.3708 10.1274L26.5409 8.68726C25.8388 7.4687 24.2829 7.04833 23.0626 7.74752C22.4818 8.08969 21.7887 8.18677 21.1362 8.01735C20.4837 7.84793 19.9254 7.42592 19.5844 6.84439C19.365 6.47476 19.2471 6.05376 19.2426 5.62395C19.2624 4.93486 19.0025 4.2671 18.5219 3.77279C18.0414 3.27848 17.3813 2.99972 16.6919 3H15.0199C14.3445 3 13.697 3.26912 13.2206 3.74783C12.7442 4.22653 12.4781 4.87536 12.4814 5.55073C12.4614 6.94513 11.3252 8.06498 9.93067 8.06484C9.50086 8.06037 9.07986 7.94249 8.71023 7.72311C7.49 7.02392 5.93406 7.44429 5.23197 8.66285L4.34104 10.1274C3.63979 11.3444 4.05445 12.8994 5.26858 13.6056C6.05778 14.0613 6.54396 14.9034 6.54396 15.8146C6.54396 16.7259 6.05778 17.568 5.26858 18.0236C4.05599 18.7252 3.64088 20.2763 4.34104 21.4897L5.18315 22.942C5.51211 23.5356 6.06405 23.9736 6.71684 24.1592C7.36962 24.3447 8.06943 24.2624 8.66141 23.9306C9.24335 23.591 9.93683 23.498 10.5877 23.6722C11.2386 23.8463 11.7929 24.2733 12.1275 24.8581C12.3468 25.2278 12.4647 25.6488 12.4692 26.0786C12.4692 27.4873 13.6112 28.6293 15.0199 28.6293H16.6919C18.0959 28.6293 19.2359 27.4947 19.2426 26.0908C19.2394 25.4133 19.5071 24.7626 19.9861 24.2835C20.4652 23.8045 21.1159 23.5368 21.7934 23.54C22.2221 23.5515 22.6414 23.6689 23.0138 23.8818C24.2309 24.583 25.7858 24.1684 26.4921 22.9542L27.3708 21.4897C27.7109 20.9059 27.8043 20.2106 27.6302 19.5577C27.4561 18.9049 27.0289 18.3484 26.4433 18.0114C25.8576 17.6745 25.4304 17.118 25.2563 16.4652C25.0822 15.8123 25.1756 15.117 25.5157 14.5332C25.7369 14.147 26.0571 13.8268 26.4433 13.6056C27.6501 12.8998 28.0638 11.3539 27.3708 10.1396V10.1274Z" stroke="white" stroke-width="2" stroke-linecap="round" stroke-linejoin="round"/>
<path d="M15.862 19.3295C17.8032 19.3295 19.3769 17.7559 19.3769 15.8146C19.3769 13.8734 17.8032 12.2998 15.862 12.2998C13.9208 12.2998 12.3471 13.8734 12.3471 15.8146C12.3471 17.7559 13.9208 19.3295 15.862 19.3295Z" stroke="white" stroke-width="2" stroke-linecap="round" stroke-linejoin="round"/>
</svg>
