<svg width="32" height="32" viewBox="0 0 32 32" fill="none" xmlns="http://www.w3.org/2000/svg">
<path fill-rule="evenodd" clip-rule="evenodd" d="M16.0034 5C15.0501 5 14.5047 6.2 13.7821 8.02933C13.3367 9.16133 12.874 10.3293 12.134 11.0947C11.1727 12.0867 9.6407 12.164 8.15803 12.2373C6.2007 12.3333 5.25536 12.4747 5.0487 13.3547C4.82203 14.3214 5.46336 14.9747 6.87536 16.14C7.92603 17.0067 9.1167 17.988 9.43403 19.432C9.70603 20.6707 9.37403 21.9707 9.0527 23.2267C8.55803 25.1627 8.4127 26.14 9.21803 26.7494C9.95936 27.308 10.746 26.9 12.362 25.8307C13.5007 25.0787 14.6754 24.3 16.0034 24.3C17.3301 24.3 18.5061 25.0787 19.6434 25.8307C21.2581 26.8987 22.0434 27.308 22.7887 26.7494C23.5941 26.14 23.4487 25.1614 22.9527 23.2254C22.6327 21.9707 22.3007 20.6707 22.5727 19.4307C22.8887 17.988 24.0794 17.0067 25.1301 16.14C26.5421 14.976 27.1834 14.3214 26.9567 13.3534C26.7501 12.4747 25.8061 12.3333 23.8487 12.2373C22.3661 12.164 20.8327 12.0867 19.8727 11.0947C19.1327 10.3293 18.6701 9.16133 18.2247 8.02933C17.5007 6.19867 16.9554 5 16.0034 5ZM9.89536 29.0094C9.27803 29.0094 8.64603 28.8214 8.01403 28.3454C6.0567 26.8694 6.64336 24.5747 7.11403 22.732C7.37803 21.7 7.65003 20.6374 7.47936 19.8614C7.31136 19.0907 6.48203 18.408 5.6047 17.684C4.25136 16.5694 2.56603 15.18 3.10203 12.8973C3.6767 10.456 6.21003 10.3307 8.05936 10.24C9.10336 10.188 10.286 10.1293 10.6967 9.704C11.1607 9.22533 11.5474 8.24533 11.922 7.296C12.678 5.38133 13.6181 3 16.0034 3C18.3874 3 19.3287 5.38133 20.0847 7.296C20.4594 8.24533 20.8461 9.22533 21.3101 9.704C21.7207 10.1293 22.9034 10.188 23.9474 10.24C25.7967 10.3307 28.3301 10.456 28.9034 12.896C29.4394 15.18 27.7541 16.5694 26.4021 17.684C25.5234 18.408 24.6941 19.0907 24.5261 19.8614C24.3554 20.636 24.6274 21.7 24.8914 22.7307C25.3634 24.5747 25.9487 26.868 23.9927 28.3454C22.0394 29.8147 20.0994 28.5307 18.5394 27.4987C17.6487 26.9094 16.7274 26.3 16.0034 26.3C15.2781 26.3 14.3567 26.9094 13.4661 27.4987C12.4114 28.196 11.1834 29.0094 9.89536 29.0094Z" fill="white"/>
</svg>
