<svg width="32" height="32" viewBox="0 0 32 32" fill="none" xmlns="http://www.w3.org/2000/svg">
<path fill-rule="evenodd" clip-rule="evenodd" d="M28.5753 12.6387C28.0593 10.444 25.7686 10.3307 23.9273 10.2387C22.7686 10.18 21.57 10.1213 21.0686 9.60267C20.558 9.07467 20.1593 8.06267 19.7713 7.084C19.0153 5.16933 18.158 3 15.9993 3C13.842 3 12.986 5.16933 12.2287 7.084C11.842 8.06267 11.442 9.07467 10.9327 9.60267C10.43 10.1213 9.23135 10.18 8.07269 10.2387C6.23135 10.3307 3.94069 10.444 3.42469 12.6387C2.93535 14.7213 4.46468 15.9813 5.81402 17.0933C6.73668 17.8533 7.60869 18.5733 7.80202 19.4533C7.99002 20.308 7.70735 21.412 7.43402 22.4813C6.96469 24.32 6.43135 26.4027 8.21135 27.7453C8.76735 28.1653 9.33135 28.332 9.88869 28.332C11.0954 28.332 12.2714 27.5533 13.278 26.8867C14.21 26.2707 15.174 25.632 15.9993 25.632C16.8246 25.632 17.79 26.2707 18.7206 26.8867C20.194 27.8613 22.026 29.072 23.79 27.7453C25.57 26.4027 25.0366 24.3187 24.566 22.4787C24.2926 21.4107 24.0113 20.3067 24.198 19.4533C24.3913 18.5733 25.2633 17.8547 26.186 17.0933C27.5353 15.9813 29.0646 14.7213 28.5753 12.6387Z" fill="#98BCFF"/>
</svg>
