<svg width="32" height="32" viewBox="0 0 32 32" fill="none" xmlns="http://www.w3.org/2000/svg">
<path d="M17.9633 16.0349C17.9519 15.5607 18.1742 15.0867 18.6303 14.6119C21.3962 11.9563 22.9958 10.3931 23.1593 8.67805C23.3538 6.20671 21.9541 4.16216 19.2337 4H12.7666C10.0448 4.16216 8.64507 6.20671 8.84096 8.67805C9.00441 10.3931 10.604 11.9563 13.3685 14.6119C13.8253 15.0867 14.0477 15.5607 14.0362 16.0349" stroke="white" stroke-width="2" stroke-linecap="round" stroke-linejoin="round"/>
<path d="M17.9633 16.0349C17.9742 16.486 18.1966 16.9372 18.6303 17.3893C21.3962 20.0449 22.9958 21.6068 23.1593 23.3219C23.3538 25.7932 21.9541 27.8377 19.2337 28H12.7666C10.0448 27.8377 8.64507 25.7932 8.84096 23.3219C9.00441 21.6068 10.604 20.0449 13.3698 17.3893C13.803 16.9372 14.0253 16.486 14.0362 16.0349" stroke="white" stroke-width="2" stroke-linecap="round" stroke-linejoin="round"/>
</svg>
