<svg width="32" height="32" viewBox="0 0 32 32" fill="none" xmlns="http://www.w3.org/2000/svg">
<path fill-rule="evenodd" clip-rule="evenodd" d="M18.9535 16.5893C18.3109 15.9253 18.3109 15.4067 18.9362 14.76C21.6695 12.1387 23.4762 10.4053 23.6682 8.39867C23.7855 6.91067 23.3789 5.54933 22.5242 4.568C21.7029 3.62533 20.5242 3.084 19.1162 3.00133C19.1029 3 19.0909 3 19.0775 3L12.5709 3.00133C11.1629 3.084 9.98293 3.62533 9.1616 4.56933C8.30826 5.55067 7.9016 6.91067 8.0216 8.41067C8.21226 10.4053 10.0176 12.1373 12.7336 14.744C13.3762 15.4067 13.3762 15.924 12.7523 16.572C10.0176 19.1947 8.21226 20.928 8.02026 22.9333C7.9016 24.4227 8.30693 25.7827 9.1616 26.7627C9.98293 27.7067 11.1616 28.2493 12.6109 28.3333L19.1162 28.332C20.5242 28.2493 21.7029 27.7067 22.5242 26.764C23.3789 25.7827 23.7855 24.4227 23.6669 22.9227C23.4762 20.928 21.6695 19.1947 18.9535 16.5893Z" fill="#98BCFF"/>
</svg>
