<svg width="24" height="24" viewBox="0 0 24 24" fill="none" xmlns="http://www.w3.org/2000/svg">
<path fill-rule="evenodd" clip-rule="evenodd" d="M19.1318 13.3579L18.072 17.2825C18.0606 17.3255 18.0366 17.3608 18.0202 17.4013C17.9924 17.4707 17.9659 17.5402 17.9229 17.5996C17.8989 17.6337 17.8661 17.6589 17.8371 17.6905C17.7853 17.7448 17.7335 17.7954 17.6703 17.8371C17.6539 17.8472 17.6451 17.8636 17.6286 17.8737C17.6097 17.8838 17.5895 17.88 17.5718 17.8888C17.4442 17.952 17.3091 17.9962 17.1625 17.9987C17.1613 17.9987 17.1587 18 17.1575 18C17.1562 18 17.1562 18 17.1549 18C17.0728 18 16.9895 17.9899 16.9074 17.9672L12.96 16.9074C12.4547 16.7709 12.1554 16.2505 12.2905 15.7465C12.4257 15.2413 12.9524 14.9432 13.4514 15.0758L15.1945 15.5444L12.2413 10.4122L8.88758 12.3411C8.43158 12.6 7.85432 12.4459 7.59284 11.9924L4.96042 7.41979C4.70021 6.96632 4.85558 6.38653 5.31032 6.12505C5.76505 5.86611 6.34105 6.02021 6.60379 6.47495L8.76379 10.2265L12.1175 8.29768C12.5735 8.03874 13.152 8.19284 13.4122 8.64758L16.8354 14.5958L17.304 12.864C17.4404 12.3587 17.9596 12.0556 18.4648 12.1971C18.9701 12.3322 19.2682 12.8539 19.1318 13.3579ZM17.0185 0H6.98021C2.80421 0 0 2.68042 0 6.66947V17.3305C0 21.3196 2.80421 24 6.98021 24H17.0185C21.1945 24 24 21.3196 24 17.3305V6.66947C24 2.68042 21.1945 0 17.0185 0Z" fill="white"/>
</svg>
