<svg width="24" height="24" viewBox="0 0 24 24" fill="none" xmlns="http://www.w3.org/2000/svg">
<path fill-rule="evenodd" clip-rule="evenodd" d="M18.4648 11.8029C18.3827 11.8269 18.2994 11.8358 18.2185 11.8358C17.8004 11.8358 17.4177 11.5592 17.304 11.136L16.8354 9.40168L13.4097 15.3537C13.1482 15.8072 12.5709 15.9625 12.1162 15.7023L8.76126 13.7735L6.60126 17.5251C6.42568 17.8295 6.10737 18 5.77895 18C5.61853 18 5.45684 17.9596 5.30779 17.8749C4.85432 17.6135 4.69895 17.0337 4.95916 16.5802L7.59158 12.0076C7.85432 11.5554 8.43032 11.4013 8.88505 11.6589L12.2387 13.5878L15.192 8.45558L13.4514 8.92421C12.9524 9.06063 12.4282 8.76 12.2905 8.25347C12.1554 7.74947 12.4547 7.22905 12.9613 7.09263L16.9074 6.03284C16.9465 6.02147 16.9869 6.03032 17.0274 6.02526C17.1082 6.01389 17.1903 5.99874 17.2737 6.00884C17.3583 6.02021 17.4354 6.05558 17.5124 6.08842C17.5503 6.10358 17.5895 6.1061 17.6261 6.12632C17.7019 6.16926 17.7562 6.23242 17.8143 6.29179C17.8408 6.31832 17.8762 6.336 17.8989 6.36632C17.9798 6.46989 18.0366 6.58611 18.0695 6.71116L19.1318 10.6421C19.2695 11.1461 18.9701 11.6678 18.4648 11.8029ZM17.0185 0H6.98021C2.80547 0 0 2.68042 0 6.67074V17.3305C0 21.3196 2.80547 24 6.98021 24H17.0185C21.1945 24 24 21.3196 24 17.3305V6.67074C24 2.68042 21.1945 0 17.0185 0Z" fill="white"/>
</svg>
