<svg width="9" height="8" viewBox="0 0 9 8" fill="none" xmlns="http://www.w3.org/2000/svg">
<path d="M5.06595 0.401143L8.59511 6.29281C8.66788 6.41882 8.70638 6.56168 8.70678 6.70719C8.70719 6.8527 8.66949 6.99578 8.59743 7.1222C8.52538 7.24861 8.42148 7.35395 8.29607 7.42775C8.17066 7.50154 8.02811 7.54121 7.88261 7.54281L0.82428 7.54281C0.678779 7.54121 0.536234 7.50154 0.410824 7.42775C0.285415 7.35395 0.181514 7.24861 0.109457 7.1222C0.0374005 6.99578 -0.000299451 6.8527 0.000107973 6.70719C0.000515397 6.56168 0.0390159 6.41882 0.111779 6.29281L3.64095 0.401143C3.71523 0.278688 3.81981 0.177443 3.94461 0.107178C4.06942 0.0369133 4.21022 0 4.35345 0C4.49667 0 4.63747 0.0369133 4.76228 0.107178C4.88708 0.177443 4.99167 0.278688 5.06595 0.401143Z" fill="#2BFF00" fill-opacity="1"/>
</svg>
