<svg width="9" height="8" viewBox="0 0 9 8" fill="none" xmlns="http://www.w3.org/2000/svg">
<path d="M5.06595 7.14167L8.59511 1.25001C8.66788 1.124 8.70638 0.981132 8.70678 0.835623C8.70719 0.690115 8.66949 0.547036 8.59743 0.420621C8.52538 0.294206 8.42148 0.188861 8.29607 0.115068C8.17066 0.0412755 8.02811 0.00160503 7.88261 5.72205e-06L0.82428 5.72205e-06C0.67878 0.00160503 0.536234 0.0412755 0.410825 0.115068C0.285416 0.188861 0.181514 0.294206 0.109457 0.420621C0.0374002 0.547036 -0.000299454 0.690115 0.000107765 0.835623C0.000514984 0.981132 0.0390158 1.124 0.111779 1.25001L3.64095 7.14167C3.71523 7.26413 3.81981 7.36537 3.94461 7.43564C4.06942 7.5059 4.21022 7.54282 4.35345 7.54282C4.49667 7.54282 4.63748 7.5059 4.76228 7.43564C4.88708 7.36537 4.99167 7.26413 5.06595 7.14167Z" fill="#FF1A1A" fill-opacity="1"/>
</svg>
