<svg width="32" height="32" viewBox="0 0 32 32" fill="none" xmlns="http://www.w3.org/2000/svg">
<rect width="32" height="32" fill="#202931"/>
<path d="M16 1C7.716 1 1 7.716 1 16C1 24.284 7.716 31 16 31C24.284 31 31 24.284 31 16C31 7.716 24.284 1 16 1ZM9.606 28.448C8.43877 27.846 7.36178 27.0832 6.4065 26.182H25.594C24.6386 27.0831 23.5617 27.8459 22.3945 28.448H9.606ZM4.46 23.9145C3.96875 23.2001 3.54509 22.4415 3.1945 21.6485H28.806C28.4552 22.4414 28.0316 23.2 27.5405 23.9145H4.46ZM2.4155 19.3825C2.23098 18.6384 2.10823 17.8803 2.0485 17.116H29.952C29.8923 17.8803 29.7695 18.6384 29.585 19.3825H2.4155ZM4.2705 8.3705H4.4595L4.624 7.8555C4.6555 7.8115 4.6855 7.7665 4.718 7.723L4.924 8.3705H5.675L5.0675 8.8515L5.3 9.5965L4.692 9.154L4.084 9.608L4.3165 8.85L4.0815 8.6645C4.143 8.566 4.207 8.4685 4.2705 8.3705ZM5.3 15.4965L4.692 15.054L4.084 15.508L4.3165 14.75L3.7085 14.27H4.4595L4.692 13.541L4.924 14.27H5.675L5.0675 14.751L5.3 15.4965ZM14.525 4.6915L14.7575 5.4205H15.5085L14.9005 5.9015L15.133 6.647L14.525 6.204L13.917 6.658L14.1495 5.9005L13.5415 5.42H14.2925L14.525 4.6915ZM14.2925 11.3205L14.525 10.592L14.7575 11.3205H15.5085L14.9005 11.802L15.133 12.547L14.525 12.104L13.917 12.558L14.1495 11.8005L13.5415 11.32H14.2925V11.3205ZM12.9335 8.8515L13.166 9.5965L12.5585 9.154L11.9505 9.608L12.1825 8.85L11.575 8.37H12.326L12.5585 7.641L12.7905 8.37H13.5415L12.9335 8.8515ZM13.166 15.4965L12.5585 15.054L11.9505 15.508L12.1825 14.75L11.575 14.27H12.326L12.5585 13.541L12.7905 14.27H13.5415L12.9335 14.751L13.166 15.4965ZM10.9675 5.9015L11.2 6.647L10.592 6.204L9.984 6.658L10.2165 5.9005L9.6085 5.42H10.3595L10.592 4.691L10.8245 5.42H11.5755L10.9675 5.9015ZM10.3595 11.3205L10.592 10.592L10.8245 11.3205H11.5755L10.9675 11.802L11.2 12.547L10.592 12.104L9.984 12.558L10.2165 11.8005L9.6085 11.32H10.3595V11.3205ZM9.0005 8.8515L9.233 9.5965L8.625 9.154L8.017 9.608L8.2495 8.85L7.6415 8.37H8.3925L8.625 7.641L8.8575 8.37H9.6085L9.0005 8.8515ZM8.3925 14.2705L8.625 13.5415L8.8575 14.2705H9.6085L9.0005 14.7515L9.233 15.4965L8.625 15.054L8.017 15.508L8.2495 14.75L7.6415 14.27L8.3925 14.2705ZM7.0335 11.802L7.266 12.547L6.658 12.104L6.05 12.558L6.2825 11.8005L5.6745 11.32H6.4255L6.658 10.5915L6.8905 11.32H7.6415L7.0335 11.802ZM16 12.5825H29.576C29.761 13.3165 29.885 14.074 29.9485 14.8485H16V12.5825ZM16 10.316V8.05H27.5145C28.0087 8.76424 28.4355 9.52283 28.7895 10.316H16ZM16 5.7825V3.516H22.324C23.5029 4.11548 24.5911 4.87852 25.5565 5.7825H16ZM12.762 2.382L12.7905 2.471H13.5415L12.9335 2.952L13.166 3.697L12.5585 3.254L11.9505 3.7085L12.1825 2.9505L11.797 2.6455C12.1155 2.54631 12.4373 2.45843 12.762 2.382ZM6.8905 5.4205H7.6415L7.0335 5.9015L7.266 6.647L6.658 6.204L6.05 6.658L6.2675 5.95C6.466 5.7575 6.671 5.571 6.881 5.3905L6.8905 5.4205ZM2.9575 11.3205H3.7085L3.1005 11.802L3.333 12.547L2.725 12.104L2.51 12.2645C2.62 11.869 2.7445 11.4805 2.8875 11.0995L2.9575 11.3205Z" fill="white"/>
</svg>
